<svg xmlns="http://www.w3.org/2000/svg" width="139" height="36" fill="none"><path fill="#fff" d="M31.378 11.847c-1.964-3.382-6.874-3.382-8.838 0l-2.917 5.024h5.846c3.47 0 6.09 2.438 6.751 5.404l.718-1.236a6.473 6.473 0 0 0 0-6.506l-1.56-2.686Z"/><path fill="#fff" d="M21.246 32.209c2.225-2.057 3.02-5.51 1.295-8.482L19.6 18.662h5.868c3.928 0 6.384 4.227 4.42 7.61l-1.917 3.3a5.308 5.308 0 0 1-4.592 2.636h-2.133Z"/><path fill="#fff" d="M7.055 27.734c2.912.908 6.34-.13 8.073-3.114l2.926-5.039 2.927 5.041c1.965 3.383-.492 7.611-4.42 7.61l-3.835-.001a5.309 5.309 0 0 1-4.59-2.636l-1.08-1.86Z"/><path fill="#fff" d="m3.889 13.297-.718 1.236a6.473 6.473 0 0 0 0 6.506l1.56 2.686c1.964 3.382 6.874 3.382 8.838 0l2.926-5.04h-5.859c-3.463 0-6.08-2.429-6.747-5.388Zm2.285-3.936a5.192 5.192 0 0 0 .001-.002v.002Z"/><path fill="#fff" d="M14.863 3.346c-2.226 2.056-3.022 5.51-1.296 8.483l2.942 5.067h-5.873c-3.928 0-6.383-4.228-4.419-7.61l1.918-3.304a5.308 5.308 0 0 1 4.591-2.636h2.137Z"/><path fill="#fff" d="m18.059 15.983-2.933-5.05c-1.964-3.382.492-7.61 4.42-7.61l3.833.001a5.308 5.308 0 0 1 4.592 2.636l1.092 1.881c-2.914-.913-6.348.124-8.083 3.111l-2.921 5.031Zm34.288 14.303H48.96V5.3h3.387l12.787 19.32V5.298h3.387v24.987h-3.387L52.347 10.967v19.32Zm28.733.414c-4.977 0-8.399-3.593-8.399-8.846 0-5.288 3.352-8.951 8.26-8.951 4.804 0 7.949 3.317 7.949 8.329v1.21l-13.064.034c.242 3.56 2.108 5.53 5.322 5.53 2.523 0 4.182-1.038 4.735-2.973h3.041c-.83 3.629-3.663 5.668-7.845 5.668Zm-.14-15.067c-2.833 0-4.63 1.693-5.045 4.665h9.746c0-2.799-1.832-4.665-4.7-4.665Zm23.26-2.247h3.214v16.9h-2.903l-.346-2.557c-.968 1.762-3.214 2.972-5.702 2.972-3.94 0-6.152-2.661-6.152-6.808V13.386h3.248v9.435c0 3.629 1.556 5.011 4.044 5.011 2.972 0 4.597-1.9 4.597-5.53v-8.916Zm17.604-.138v2.972h-1.452c-3.076 0-4.976 1.867-4.976 5.115v8.951h-3.249V13.421h3.041l.208 2.557c.691-1.762 2.384-2.937 4.7-2.937.587 0 1.071.069 1.728.207Zm7.314 17.452c-3.629 0-5.772-2.038-5.772-5.114 0-3.11 2.316-5.046 6.29-5.357l5.322-.415v-.483c0-2.834-1.693-3.836-3.974-3.836-2.73 0-4.285 1.21-4.285 3.248h-2.834c0-3.525 2.903-5.84 7.257-5.84 4.182 0 7.016 2.211 7.016 6.773v10.61h-2.765l-.345-2.73c-.864 1.935-3.18 3.145-5.91 3.145Zm.933-2.522c3.076 0 4.942-2.004 4.942-5.184v-.898l-4.32.345c-2.868.277-4.043 1.383-4.043 3.041 0 1.797 1.313 2.696 3.421 2.696Z"/></svg>