<svg xmlns:xlink="http://www.w3.org/1999/xlink"  xmlns="http://www.w3.org/2000/svg" viewBox="0 0 256 256" focusable="false" color="var(--token-552f9c26-50ff-4530-9984-a5ff5918a4af, rgb(255, 255, 255))" style="user-select: none; width: 100%; height: 100%; display: inline-block; fill: var(--token-552f9c26-50ff-4530-9984-a5ff5918a4af, rgb(255, 255, 255)); color: var(--token-552f9c26-50ff-4530-9984-a5ff5918a4af, rgb(255, 255, 255)); flex-shrink: 0;"><g color="var(--token-552f9c26-50ff-4530-9984-a5ff5918a4af, rgb(255, 255, 255))" weight="regular"><path d="M215.79,118.17a8,8,0,0,0-5-5.66L153.18,90.9l14.66-73.33a8,8,0,0,0-13.69-7l-112,120a8,8,0,0,0,3,13l57.63,21.61L88.16,238.43a8,8,0,0,0,13.69,7l112-120A8,8,0,0,0,215.79,118.17ZM109.37,214l10.47-52.38a8,8,0,0,0-5-9.06L62,132.71l84.62-90.66L136.16,94.43a8,8,0,0,0,5,9.06l52.8,19.8Z"></path></g></svg>