<svg xmlns:xlink="http://www.w3.org/1999/xlink"  xmlns="http://www.w3.org/2000/svg" viewBox="0 0 256 256" focusable="false" color="var(--token-ca519111-c9a9-4fa3-9733-87071cfa4b03, rgb(255, 116, 66))" style="user-select: none; width: 100%; height: 100%; display: inline-block; fill: var(--token-ca519111-c9a9-4fa3-9733-87071cfa4b03, rgb(255, 116, 66)); color: var(--token-ca519111-c9a9-4fa3-9733-87071cfa4b03, rgb(255, 116, 66)); flex-shrink: 0;"><g color="var(--token-ca519111-c9a9-4fa3-9733-87071cfa4b03, rgb(255, 116, 66))" weight="regular"><path d="M152,80a8,8,0,0,1,8-8h88a8,8,0,0,1,0,16H160A8,8,0,0,1,152,80Zm96,40H160a8,8,0,0,0,0,16h88a8,8,0,0,0,0-16Zm0,48H184a8,8,0,0,0,0,16h64a8,8,0,0,0,0-16Zm-96.25,22a8,8,0,0,1-5.76,9.74,7.55,7.55,0,0,1-2,.26,8,8,0,0,1-7.75-6c-6.16-23.94-30.34-42-56.25-42s-50.09,18.05-56.25,42a8,8,0,0,1-15.5-4c5.59-21.71,21.84-39.29,42.46-48a48,48,0,1,1,58.58,0C129.91,150.71,146.16,168.29,151.75,190ZM80,136a32,32,0,1,0-32-32A32,32,0,0,0,80,136Z"></path></g></svg>