<svg xmlns:xlink="http://www.w3.org/1999/xlink"  xmlns="http://www.w3.org/2000/svg" viewBox="0 0 256 256" focusable="false" color="var(--token-ca519111-c9a9-4fa3-9733-87071cfa4b03, rgb(255, 116, 66))" style="user-select: none; width: 100%; height: 100%; display: inline-block; fill: var(--token-ca519111-c9a9-4fa3-9733-87071cfa4b03, rgb(255, 116, 66)); color: var(--token-ca519111-c9a9-4fa3-9733-87071cfa4b03, rgb(255, 116, 66)); flex-shrink: 0;"><g color="var(--token-ca519111-c9a9-4fa3-9733-87071cfa4b03, rgb(255, 116, 66))" weight="fill"><path d="M116,72v88a48.05,48.05,0,0,1-48,48,8,8,0,0,1,0-16,32,32,0,0,0,32-32v-8H40a16,16,0,0,1-16-16V72A16,16,0,0,1,40,56h60A16,16,0,0,1,116,72ZM216,56H156a16,16,0,0,0-16,16v64a16,16,0,0,0,16,16h60v8a32,32,0,0,1-32,32,8,8,0,0,0,0,16,48.05,48.05,0,0,0,48-48V72A16,16,0,0,0,216,56Z"></path></g></svg>