<svg xmlns:xlink="http://www.w3.org/1999/xlink"  xmlns="http://www.w3.org/2000/svg" width="96" height="25" fill="none"><path fill="#fff" d="M21.79 8.227c-1.364-2.348-4.773-2.348-6.137 0l-2.026 3.489h4.06c2.409 0 4.229 1.693 4.688 3.753l.498-.859a4.495 4.495 0 0 0 0-4.518L21.79 8.227Z"/><path fill="#fff" d="M14.754 22.367c1.545-1.428 2.098-3.827.9-5.89l-2.043-3.518h4.075c2.728 0 4.433 2.936 3.07 5.285l-1.332 2.292a3.687 3.687 0 0 1-3.189 1.83h-1.48Z"/><path fill="#fff" d="M4.9 19.26c2.022.63 4.402-.09 5.606-2.163l2.032-3.499 2.032 3.5c1.364 2.35-.341 5.286-3.07 5.285H8.839a3.687 3.687 0 0 1-3.188-1.831L4.9 19.26Z"/><path fill="#fff" d="m2.7 9.234-.498.859a4.495 4.495 0 0 0 0 4.517l1.083 1.866c1.364 2.348 4.774 2.348 6.138 0l2.032-3.5H7.386c-2.405 0-4.222-1.687-4.686-3.742Zm1.588-2.733a3.606 3.606 0 0 0 0-.001Z"/><path fill="#fff" d="M10.322 2.323c-1.546 1.428-2.1 3.828-.9 5.892l2.042 3.518H7.386c-2.728 0-4.432-2.936-3.068-5.285L5.65 4.154a3.686 3.686 0 0 1 3.188-1.83h1.484Z"/><path fill="#fff" d="m12.54 11.1-2.036-3.507c-1.364-2.349.342-5.285 3.07-5.285h2.662c1.315 0 2.53.699 3.188 1.831l.759 1.306c-2.024-.634-4.409.086-5.613 2.16L12.54 11.1Z"/><path fill="#000" stroke="#000" stroke-width=".2" d="M11.29 11.63 9.334 8.265c-1.177-2.027-.7-4.37.74-5.842H8.839a3.59 3.59 0 0 0-3.102 1.781l-.086-.05.086.05L4.404 6.5l6.885 5.13Zm0 0H7.231c-2.542-.108-4.103-2.854-2.856-5.082l6.913 5.082ZM1.032 9.42l.086.05-.086-.05a5.832 5.832 0 0 0 0 5.862 7129.465 7129.465 0 0 1 3.447 5.942 5.039 5.039 0 0 0 4.358 2.502c1.268 0 2.54-.004 3.81-.008 1.197-.004 2.394-.008 3.588-.008a5.038 5.038 0 0 0 4.358-2.502c.573-.987 1.148-1.974 1.723-2.96l.001-.003.002-.003c.575-.986 1.15-1.972 1.723-2.96a5.833 5.833 0 0 0 0-5.861L22.33 6.46l-.01-.017-1.725-2.977A5.038 5.038 0 0 0 16.236.965c-1.262 0-2.527.004-3.792.007C11.24.976 10.038.98 8.838.98A5.038 5.038 0 0 0 4.48 3.482 35178.777 35178.777 0 0 0 1.033 9.42Zm9.4 7.983a4.41 4.41 0 0 0 .16-.256l1.945-3.35.467.806c.374.645.748 1.29 1.124 1.934l.355.612.086-.05-.086.05c1.325 2.281-.331 5.135-2.983 5.134H8.838c-1.28 0-2.462-.68-3.102-1.782l-.626-1.078c1.922.494 4.103-.178 5.323-2.02Zm-8.144-7.26-.087-.05.087.05.375-.646a4.944 4.944 0 0 0 1.587 2.456 4.84 4.84 0 0 0 3.136 1.123h3.884l-1.437 2.475c-.085.146-.167.292-.25.438v.001a38.5 38.5 0 0 1-.248.435c-1.325 2.282-4.639 2.282-5.964 0L2.289 14.56a4.395 4.395 0 0 1 0-4.417Zm9.04 2.833h.116l-.058.1-.058-.1Zm8.009-8.787.086-.05-.086.05.634 1.092c-2.01-.52-4.306.238-5.489 2.274L12.541 10.9l-1.95-3.357c-1.325-2.282.33-5.135 2.983-5.135h2.662c1.28 0 2.462.68 3.102 1.781Zm3.45 10.371-.376.646c-.552-1.992-2.36-3.59-4.725-3.59H13.8l1.938-3.338c1.326-2.283 4.64-2.283 5.965 0l1.083 1.865a4.396 4.396 0 0 1 0 4.417Zm-6.552 7.707H15c1.44-1.473 1.917-3.814.74-5.84l-1.955-3.368h3.902c2.651 0 4.307 2.854 2.982 5.135l-1.331 2.292a3.586 3.586 0 0 1-3.102 1.78Z"/><path fill="#000" fill-opacity=".1" d="M8.838 2.324h1.484c-1.546 1.427-2.1 3.826-.9 5.89l2.033 3.502h-.002v.014h-1.365L8.39 8.806c-1.275-2.197-.957-4.694.348-6.481l.1-.001ZM2.7 9.234a4.84 4.84 0 0 0 1.615 2.642 4.734 4.734 0 0 0 3.072 1.1h4.058l-.688 1.184h-3.37c-2.54 0-4.548-1.508-5.459-3.51.078-.19.17-.377.274-.558l.498-.858ZM4.9 19.26c1.938.604 4.205-.033 5.45-1.912.054-.081.106-.165.156-.25l2.032-3.5.553.954.134.23-1.688 2.907c-1.28 2.204-3.626 3.178-5.842 2.939a3.817 3.817 0 0 1-.045-.076L4.9 19.26Zm11.437 3.105a3.46 3.46 0 0 1-.102.002h-1.481c1.545-1.428 2.098-3.827.9-5.89l-2.043-3.518h1.374l1.7 2.926c1.275 2.197.957 4.693-.348 6.48Zm6.811-8.314a4.5 4.5 0 0 1-.275.56l-.498.858c-.46-2.06-2.279-3.753-4.689-3.753h-4.06l.688-1.183h3.372c2.543 0 4.553 1.512 5.462 3.518Zm-3.761-9.975.037.063.759 1.306c-2.024-.634-4.409.086-5.614 2.16L12.541 11.1l-.688-1.184 1.686-2.902c1.28-2.207 3.63-3.18 5.848-2.938Z"/><path fill="#1A1D21" d="M36.352 21.032H34V3.68h2.352l8.88 13.416V3.68h2.352v17.352h-2.352l-8.88-13.416v13.416Zm19.953.288c-3.456 0-5.832-2.496-5.832-6.144 0-3.672 2.328-6.216 5.736-6.216 3.336 0 5.52 2.304 5.52 5.784v.84l-9.072.024c.168 2.472 1.464 3.84 3.696 3.84 1.752 0 2.904-.72 3.288-2.064h2.112c-.576 2.52-2.544 3.936-5.448 3.936Zm-.096-10.464c-1.968 0-3.216 1.176-3.504 3.24h6.768c0-1.944-1.272-3.24-3.264-3.24Zm16.151-1.56h2.233v11.736h-2.016l-.24-1.776c-.672 1.224-2.232 2.064-3.96 2.064-2.736 0-4.272-1.848-4.272-4.728V9.296h2.256v6.552c0 2.52 1.08 3.48 2.808 3.48 2.064 0 3.192-1.32 3.192-3.84V9.296ZM84.586 9.2v2.064h-1.008c-2.136 0-3.456 1.296-3.456 3.552v6.216h-2.256V9.32h2.112l.144 1.776c.48-1.224 1.656-2.04 3.264-2.04.408 0 .744.048 1.2.144Zm5.079 12.12c-2.52 0-4.008-1.416-4.008-3.552 0-2.16 1.608-3.504 4.368-3.72l3.696-.288v-.336c0-1.968-1.176-2.664-2.76-2.664-1.896 0-2.976.84-2.976 2.256h-1.968c0-2.448 2.016-4.056 5.04-4.056 2.904 0 4.872 1.536 4.872 4.704v7.368h-1.92l-.24-1.896c-.6 1.344-2.208 2.184-4.104 2.184Zm.648-1.752c2.136 0 3.432-1.392 3.432-3.6v-.624l-3 .24c-1.992.192-2.808.96-2.808 2.112 0 1.248.912 1.872 2.376 1.872Z"/></svg>