<svg xmlns:xlink="http://www.w3.org/1999/xlink"  xmlns="http://www.w3.org/2000/svg" width="166" height="42" fill="none"><g fill="#959595" clip-path="url(#a)"><path d="M.75 13.91h15.177L1 28.84l2.41 2.41 14.93-14.928V31.5h.096l3.314-3.314V14.217L18.033 10.5H4.063L.75 13.812v.099Zm41.352 8.458h2.89v2.685h-2.89v3.822h-3.207v-3.822H30.5V22.71l8.69-10.306h2.913v9.964Zm-7.507 0h4.3v-5.255l-4.3 5.255Zm18.455-4.686c1.122 0 2.123.22 3.003.66a4.83 4.83 0 0 1 2.093 1.956c.515.865.773 1.904.773 3.117 0 1.805-.569 3.215-1.706 4.231-1.138 1.001-2.738 1.502-4.8 1.502-1.426 0-2.624-.235-3.595-.705-.955-.47-1.683-1.092-2.184-1.866a5.582 5.582 0 0 1-.842-2.548h3.276c.486 1.76 1.593 2.64 3.322 2.64 1.062 0 1.865-.297 2.411-.888.562-.592.842-1.388.842-2.389 0-1.016-.28-1.805-.842-2.366-.56-.576-1.357-.864-2.388-.864-1.365 0-2.412.568-3.14 1.706l-2.957-.296 1.114-9.168h10.534v2.684h-7.872l-.5 3.777c.819-.789 1.971-1.183 3.458-1.183Zm18.497-5.278c2.29 0 4.36.546 6.21 1.638 1.866 1.077 2.799 3.276 2.799 6.597 0 3.322-.933 5.529-2.799 6.62-1.85 1.078-3.92 1.616-6.21 1.616h-5.551V12.404h5.55Zm-.114 13.604c1.046-.015 1.98-.136 2.798-.364.834-.242 1.54-.758 2.116-1.547.591-.788.887-1.94.887-3.458 0-1.516-.296-2.669-.887-3.458-.576-.788-1.282-1.304-2.116-1.547-.819-.242-1.752-.364-2.798-.364h-2.23v10.738h2.23Zm16.649-9.646c1.32 0 2.45.296 3.39.888.956.576 1.661 1.403 2.116 2.48.47 1.076.667 2.343.592 3.799h-9.192c.107 1.031.433 1.812.979 2.343.546.53 1.259.796 2.138.796.774 0 1.395-.19 1.866-.569.485-.379.811-.857.978-1.433h3.163c-.273 1.426-.949 2.533-2.025 3.322-1.062.773-2.389 1.16-3.982 1.16-1.304 0-2.434-.265-3.39-.796a5.335 5.335 0 0 1-2.184-2.23c-.5-.97-.75-2.093-.75-3.367 0-1.259.258-2.373.773-3.344a5.444 5.444 0 0 1 2.207-2.252c.956-.531 2.063-.797 3.322-.797Zm2.936 5.165c-.091-.82-.387-1.48-.888-1.98-.485-.5-1.176-.75-2.07-.75-.82 0-1.487.227-2.002.682-.516.455-.857 1.138-1.024 2.048h5.984Zm16.503-4.892v11.74c0 1.592-.508 2.873-1.524 3.844-1.016.986-2.503 1.479-4.459 1.479-1.699 0-3.049-.38-4.05-1.138-1-.743-1.592-1.744-1.774-3.003h3.117c.364 1.123 1.266 1.684 2.707 1.684 1.001 0 1.729-.25 2.184-.75.455-.486.682-1.207.682-2.162V26.69c-.849 1.304-2.13 1.956-3.845 1.956-1.076 0-2.024-.242-2.843-.728-.803-.5-1.433-1.213-1.888-2.138-.44-.925-.66-2.017-.66-3.276s.22-2.35.66-3.276c.454-.925 1.084-1.63 1.888-2.116.819-.5 1.767-.75 2.843-.75 1.729 0 3.011.652 3.845 1.956v-1.684h3.117Zm-6.12 9.555c1.017 0 1.797-.34 2.343-1.023.546-.683.819-1.57.819-2.662 0-1.092-.273-1.98-.819-2.662-.546-.682-1.326-1.024-2.343-1.024-1.031 0-1.804.35-2.32 1.047-.5.682-.751 1.562-.751 2.639 0 1.077.25 1.964.75 2.662.517.682 1.29 1.023 2.321 1.023Zm14.626-9.691c.258 0 .516.023.773.068v3.117a5.253 5.253 0 0 0-.864-.068c-.956 0-1.669.227-2.139.682-.47.44-.765.963-.887 1.57-.122.591-.182 1.281-.182 2.07v4.937h-3.117v-12.24h3.072v2.093c.667-1.486 1.782-2.23 3.344-2.23Zm7.748-.137c1.319 0 2.45.296 3.39.888.955.576 1.66 1.403 2.115 2.48.471 1.076.668 2.343.592 3.799h-9.191c.107 1.031.432 1.812.978 2.343.546.53 1.259.796 2.139.796.773 0 1.395-.19 1.865-.569.486-.379.812-.857.978-1.433h3.163c-.273 1.426-.948 2.533-2.025 3.322-1.061.773-2.389 1.16-3.981 1.16-1.304 0-2.435-.265-3.39-.796a5.33 5.33 0 0 1-2.184-2.23c-.501-.97-.751-2.093-.751-3.367 0-1.259.258-2.373.774-3.344a5.448 5.448 0 0 1 2.206-2.252c.956-.531 2.064-.797 3.322-.797Zm2.935 5.165c-.091-.82-.387-1.48-.888-1.98-.484-.5-1.175-.75-2.07-.75-.819 0-1.486.227-2.002.682-.515.455-.856 1.138-1.024 2.048h5.984Zm10.407-5.165c1.319 0 2.449.296 3.39.888.955.576 1.66 1.403 2.115 2.48.47 1.076.667 2.343.592 3.799h-9.191c.106 1.031.432 1.812.978 2.343.546.53 1.258.796 2.139.796.773 0 1.394-.19 1.865-.569.485-.379.811-.857.978-1.433h3.163c-.273 1.426-.949 2.533-2.025 3.322-1.062.773-2.389 1.16-3.981 1.16-1.305 0-2.435-.265-3.39-.796a5.33 5.33 0 0 1-2.184-2.23c-.501-.97-.751-2.093-.751-3.367 0-1.259.257-2.373.774-3.344a5.442 5.442 0 0 1 2.206-2.252c.956-.531 2.063-.797 3.322-.797Zm2.935 5.165c-.091-.82-.387-1.48-.888-1.98-.485-.5-1.176-.75-2.07-.75-.819 0-1.486.227-2.002.682-.516.455-.857 1.138-1.024 2.048h5.984Zm9.969 7.621c-1.85 0-3.283-.41-4.299-1.229-1.016-.819-1.593-1.85-1.729-3.094h3.116c.41 1.305 1.403 1.957 2.981 1.957.728 0 1.296-.129 1.706-.387.409-.273.614-.622.614-1.046 0-.455-.227-.774-.682-.956-.44-.197-1.198-.394-2.275-.591-1.001-.167-1.858-.364-2.571-.592a4.72 4.72 0 0 1-1.843-1.137c-.515-.516-.773-1.206-.773-2.07 0-1.23.515-2.14 1.547-2.73 1.031-.607 2.29-.91 3.776-.91 1.638 0 2.943.356 3.913 1.069.986.713 1.57 1.668 1.752 2.866h-3.117a2.291 2.291 0 0 0-.887-1.16c-.395-.273-.97-.41-1.729-.41-.652 0-1.175.107-1.57.319-.379.212-.569.5-.569.864 0 .319.152.584.455.797.319.197.668.34 1.047.432a61.3 61.3 0 0 0 1.956.41c1.638.303 2.829.705 3.572 1.205.743.5 1.115 1.259 1.115 2.275 0 1.244-.478 2.245-1.433 3.003-.956.743-2.313 1.115-4.073 1.115Zm10.871-9.418c-.683 0-1.32-.152-1.911-.456a3.672 3.672 0 0 1-1.388-1.342c-.334-.576-.501-1.244-.501-2.002 0-.758.167-1.426.501-2.002a3.503 3.503 0 0 1 1.388-1.32 3.966 3.966 0 0 1 1.911-.477c.682 0 1.311.16 1.888.478.591.303 1.061.75 1.41 1.342.349.576.524 1.236.524 1.98 0 .742-.175 1.41-.524 2.001a3.64 3.64 0 0 1-1.41 1.342 3.995 3.995 0 0 1-1.888.455Zm0-1.912c.515 0 .924-.166 1.228-.5.319-.349.478-.812.478-1.388 0-.576-.159-1.031-.478-1.365-.304-.334-.713-.5-1.228-.5-.501 0-.91.166-1.229.5-.304.334-.455.789-.455 1.365s.151 1.04.455 1.388c.319.334.728.5 1.229.5Z"/><path fill-rule="evenodd" d="M160.906 14.236a1.701 1.701 0 1 0-.001 3.403 1.701 1.701 0 0 0 .001-3.403Zm0 5.513a3.81 3.81 0 1 0 0-7.621 3.81 3.81 0 0 0 0 7.62Z" clip-rule="evenodd"/></g><defs><clipPath id="a"><path fill="#fff" d="M.75 0h164.5v42H.75z"/></clipPath></defs></svg>