<svg xmlns:xlink="http://www.w3.org/1999/xlink"  xmlns="http://www.w3.org/2000/svg" width="165" height="42" fill="none"><g fill="#959595" clip-path="url(#a)"><path d="M22.224 6.154a7 7 0 0 0-9.9 0l-9.899 9.9a7 7 0 0 0 0 9.899l9.9 9.9a7 7 0 0 0 9.9 0l4.723-4.724a10.503 10.503 0 0 1-6.722-9.8c0-4.645 3.016-8.586 7.197-9.97a14.607 14.607 0 0 0-.249-.255l-4.95-4.95Zm4.724 24.978c1.172.452 2.446.7 3.778.7 5.799 0 10.5-4.7 10.5-10.5 0-5.799-4.701-10.5-10.5-10.5-1.154 0-2.264.186-3.302.53 5.217 5.485 5.133 14.16-.25 19.544l-.226.226Zm34.333-2.257-1.276-3.638h-6.591l-1.3 3.638H48.5l6.379-16.963H58.8l6.331 16.963h-3.85Zm-4.536-13.041-2.315 6.544h4.583l-2.268-6.544Zm12.533 13.041H65.97V11.912h3.308v16.963Zm14.592-6.308c0 3.733-2.198 6.544-5.6 6.544-1.488 0-2.764-.638-3.709-1.866v6.19h-3.284V16.259h3.024v1.843c.969-1.347 2.363-2.08 3.97-2.08 3.401 0 5.599 2.836 5.599 6.545Zm-3.379 0c0-2.362-1.347-3.638-2.953-3.638-1.606 0-2.953 1.252-2.953 3.638s1.347 3.615 2.953 3.615c1.606 0 2.953-1.205 2.953-3.615ZM88.313 22v6.875h-3.284V11.912h3.284v6.001c.874-1.158 1.96-1.89 3.614-1.89 2.528 0 4.276 1.654 4.276 4.701v8.151h-3.26v-7.04c0-1.867-.732-2.906-2.22-2.906-1.3 0-2.41 1.04-2.41 3.071Zm17.288 6.875v-1.56c-.827 1.182-2.079 1.796-3.804 1.796-2.622 0-4.37-1.535-4.37-3.898 0-2.457 1.984-3.78 5.67-3.78.708 0 1.323.047 2.102.142v-.756c0-1.418-.803-2.245-2.173-2.245-1.418 0-2.268.827-2.386 2.245h-2.954c.19-2.906 2.292-4.796 5.34-4.796 3.307 0 5.244 1.82 5.244 4.914v7.938h-2.669Zm-5.08-3.756c0 1.063.756 1.724 1.985 1.724 1.677 0 2.693-.921 2.693-2.386v-.898c-.779-.118-1.323-.165-1.89-.165-1.866 0-2.788.59-2.788 1.725Zm21.616 3.756-3.165-11.86-3.166 11.86h-3.638l-4.347-16.963h3.496l2.741 11.506 3.118-11.506h3.662l3.024 11.553 2.764-11.553h3.52l-4.37 16.963h-3.639Zm15.373 0v-1.56c-.827 1.182-2.079 1.796-3.803 1.796-2.623 0-4.371-1.535-4.371-3.898 0-2.457 1.984-3.78 5.67-3.78.709 0 1.323.047 2.103.142v-.756c0-1.418-.804-2.245-2.174-2.245-1.417 0-2.268.827-2.386 2.245h-2.953c.189-2.906 2.291-4.796 5.339-4.796 3.308 0 5.245 1.82 5.245 4.914v7.938h-2.67Zm-5.079-3.756c0 1.063.756 1.724 1.984 1.724 1.678 0 2.694-.921 2.694-2.386v-.898c-.78-.118-1.323-.165-1.89-.165-1.867 0-2.788.59-2.788 1.725Zm20.559-8.859-4.631 12.615h-3.591l-4.654-12.616h3.544l3 8.883 3.024-8.883h3.308Zm5.539 12.828c-3.78 0-6.308-2.623-6.308-6.568 0-3.757 2.622-6.497 6.26-6.497 3.993 0 6.639 3.237 6.048 7.347h-8.954c.213 2.056 1.205 3.19 2.883 3.19 1.441 0 2.409-.71 2.787-1.961h3.261c-.709 2.858-2.906 4.489-5.977 4.489Zm-.119-10.655c-1.535 0-2.504.992-2.787 2.858h5.433c-.094-1.748-1.086-2.858-2.646-2.858Z"/></g><defs><clipPath id="a"><path fill="#fff" d="M.375 0h164.5v42H.375z"/></clipPath></defs></svg>