<svg xmlns:xlink="http://www.w3.org/1999/xlink"  xmlns="http://www.w3.org/2000/svg" width="173" height="42" fill="none"><path fill="#959595" fill-rule="evenodd" d="M0 21c13.348 0 21-7.652 21-21 0 13.348 7.652 21 21 21-13.348 0-21 7.652-21 21 0-13.348-7.652-21-21-21Z" clip-rule="evenodd"/><path fill="#959595" d="m47.25 28.875 5.74-17.223h5.198l5.741 17.223h-3.827l-1.158-3.544h-6.71l-1.157 3.544H47.25Zm5.835-6.355h5.009l-1.465-4.394-.968-3.143h-.142l-.969 3.143-1.465 4.394Zm17.251 6.568c-1.26 0-2.363-.268-3.308-.804a5.7 5.7 0 0 1-2.197-2.291c-.52-.992-.78-2.142-.78-3.45 0-1.322.26-2.472.78-3.449a5.618 5.618 0 0 1 2.244-2.291c.961-.552 2.087-.827 3.379-.827 1.087 0 2.055.204 2.906.614.85.41 1.52.977 2.008 1.701.504.724.78 1.567.827 2.528h-3.402c-.11-.662-.386-1.158-.827-1.488-.441-.347-.977-.52-1.607-.52-.913 0-1.606.338-2.079 1.016-.472.677-.709 1.582-.709 2.716 0 1.245.252 2.174.757 2.788.52.614 1.189.922 2.008.922.74 0 1.323-.19 1.748-.567.44-.378.693-.875.756-1.489h3.378c-.047.992-.33 1.859-.85 2.599-.504.724-1.19 1.291-2.056 1.701-.866.394-1.858.59-2.976.59Zm7.542-.213V16.212h3.355l.118 2.292h.141c.315-.835.827-1.465 1.536-1.89a4.46 4.46 0 0 1 2.339-.638c.882 0 1.685.212 2.41.638.724.425 1.26 1.157 1.606 2.197h.189c.3-.945.827-1.654 1.583-2.127.772-.472 1.638-.708 2.599-.708.819 0 1.551.173 2.197.52.646.346 1.157.905 1.535 1.677.394.756.591 1.772.591 3.048v7.654h-3.473v-6.898c0-1.072-.181-1.867-.543-2.387-.347-.52-.914-.78-1.701-.78-.835 0-1.489.308-1.961.922-.457.599-.685 1.3-.685 2.103v7.04H86.24v-6.898c0-1.072-.181-1.867-.543-2.387-.347-.52-.914-.78-1.701-.78-.85 0-1.504.308-1.961.922-.457.599-.685 1.3-.685 2.103v7.04h-3.473Zm28.127.213c-1.323 0-2.457-.268-3.402-.804a5.467 5.467 0 0 1-2.149-2.244c-.504-.976-.756-2.11-.756-3.402 0-1.37.252-2.552.756-3.544.519-.992 1.244-1.756 2.173-2.291.929-.552 2.016-.827 3.26-.827 1.465 0 2.67.323 3.615.968.945.63 1.622 1.505 2.032 2.623.409 1.102.543 2.354.401 3.756h-8.812c-.016 1.008.244 1.788.78 2.339.535.536 1.236.803 2.102.803.662 0 1.221-.142 1.678-.425.472-.3.772-.693.898-1.181h3.283c-.11.85-.433 1.59-.968 2.22-.52.63-1.197 1.127-2.032 1.489-.835.346-1.788.52-2.859.52Zm-.118-10.49c-.787 0-1.425.229-1.913.685-.489.441-.764 1.048-.827 1.82h5.386c-.047-.851-.323-1.481-.827-1.89-.488-.41-1.094-.615-1.819-.615Zm20.387 10.49c-1.717 0-3.229-.347-4.536-1.04-1.292-.693-2.3-1.7-3.024-3.024-.725-1.323-1.087-2.914-1.087-4.772 0-1.859.362-3.441 1.087-4.749.724-1.323 1.732-2.33 3.024-3.024 1.307-.693 2.819-1.04 4.536-1.04 1.48 0 2.795.26 3.945.78 1.15.504 2.079 1.221 2.788 2.15.709.914 1.142 1.985 1.299 3.213h-3.732c-.205-.882-.693-1.598-1.465-2.15-.756-.567-1.701-.85-2.835-.85-1.481 0-2.662.472-3.544 1.417-.866.945-1.299 2.363-1.299 4.253 0 1.906.433 3.331 1.299 4.276.882.945 2.063 1.418 3.544 1.418 1.102 0 2.047-.276 2.835-.827.787-.552 1.276-1.284 1.465-2.197h3.732c-.141 1.228-.575 2.307-1.299 3.236-.725.93-1.67 1.654-2.835 2.174-1.15.504-2.449.756-3.898.756Zm15.575 0c-1.26 0-2.37-.26-3.331-.78a5.504 5.504 0 0 1-2.245-2.244c-.519-.977-.779-2.15-.779-3.52 0-1.308.252-2.45.756-3.426a5.508 5.508 0 0 1 2.173-2.315c.945-.552 2.087-.827 3.426-.827 1.26 0 2.362.26 3.307.78a5.322 5.322 0 0 1 2.221 2.267c.536.977.803 2.15.803 3.52 0 1.308-.252 2.457-.756 3.45a5.542 5.542 0 0 1-2.173 2.291c-.929.536-2.063.804-3.402.804Zm-.024-2.812c.851 0 1.536-.307 2.056-.921.519-.614.779-1.552.779-2.811 0-1.26-.252-2.198-.756-2.812-.504-.614-1.189-.921-2.055-.921-.866 0-1.559.307-2.079.921-.52.614-.78 1.552-.78 2.812 0 1.244.252 2.18.756 2.81.52.615 1.213.922 2.079.922Zm8.095 2.599V16.212h3.142l.142 2.032h.118c.283-.82.732-1.386 1.347-1.701.63-.331 1.346-.496 2.149-.496h.709v3.26h-.779c-1.166 0-2.009.26-2.528.78-.52.503-.796 1.228-.827 2.173v6.615h-3.473Zm8.964 3.945V16.212h3.355l.118 2.197h.189c.299-.74.796-1.33 1.489-1.772.708-.44 1.551-.661 2.527-.661 1.512 0 2.733.551 3.662 1.653.945 1.087 1.418 2.725 1.418 4.915 0 2.173-.473 3.811-1.418 4.913-.929 1.103-2.15 1.654-3.662 1.654-.976 0-1.819-.22-2.527-.661-.693-.457-1.19-1.048-1.489-1.772h-.189v6.142h-3.473Zm6.379-6.52c.851 0 1.528-.3 2.032-.898.52-.614.779-1.567.779-2.858 0-1.292-.259-2.237-.779-2.835-.504-.615-1.181-.922-2.032-.922-.646 0-1.181.15-1.606.449-.426.3-.741.693-.945 1.181a3.758 3.758 0 0 0-.308 1.512v1.229c0 .535.103 1.047.308 1.535.204.473.519.859.945 1.158.425.3.96.449 1.606.449Z"/></svg>