<svg xmlns:xlink="http://www.w3.org/1999/xlink"  xmlns="http://www.w3.org/2000/svg" width="135" height="42" fill="none"><g fill="#959595" clip-path="url(#a)"><path d="M21.397 30.379c-2.784-1.034-5.648-1.193-8.273-.477-1.83.477-3.58 1.432-5.17 2.625l-1.114.954-.318.318.716.637c.08 0 .08.08.16.159.158.159.317.239.556.398l.477.318.478-.398c.08-.08.238-.239.397-.318 1.432-1.193 3.023-1.989 4.693-2.386 2.148-.557 4.455-.478 6.762.397 1.909.716 5.806 1.591 10.5-.397l.159-.08.238-.239c0-.08.08-.08.16-.159.397-.477.795-.954 1.113-1.511l1.59-2.466-2.545 1.432c-3.738 2.068-7.159 2.466-10.579 1.193ZM10.5 21.788c2.148-.556 4.454-.477 6.761.398 2.546.955 9.068 2.307 16.386-4.295l1.591-1.591-.16-.398c-.079-.318-.238-.716-.397-1.113l-.398-1.114-.795.795c-.08.16-.239.24-.398.398-3.5 3.58-8.909 7.239-15.113 5.011-2.784-1.034-5.648-1.193-8.273-.477-2.545.716-4.772 2.068-6.84 3.977v-.08L1.67 24.574c0 .08-.08.08-.159.159l-.238.238.08.319c.079.397.238.795.317 1.193l.478 1.272.795-1.034c.08-.159.239-.238.318-.397 1.67-1.512 3.978-3.66 7.239-4.535Z"/><path d="M2.784 20.357c1.83-1.91 3.898-3.103 6.125-3.74 2.148-.556 4.454-.476 6.761.399 7.16 2.625 13.364-1.67 16.068-3.977l1.034-1.035.398-.318-.318-.477c-.239-.239-.398-.557-.637-.875l-.477-.636-.557.556-.318.319c-3.34 3.181-8.511 6.443-14.397 4.216-2.784-1.035-5.648-1.194-8.273-.478-1.67.478-3.261 1.273-4.852 2.307L1.67 17.97l-.398.398-.16.159v.239c-.079.557-.079 1.113-.158 1.59l-.08 1.99 1.352-1.433c.16-.159.318-.397.557-.556Zm20.92 15.431c-.238-.08-.397-.159-.636-.239-2.784-1.034-5.648-1.193-8.273-.477-.556.16-1.113.318-1.67.557l-1.909.875-.477.239 1.59.556 1.432.478.24.08.238-.08c.238-.08.477-.239.716-.239.159 0 .318-.08.477-.159 1.909-.477 3.977-.477 6.204.239.239.08.398.159.637.238l.397.16.239-.08c.557-.16 1.193-.318 1.67-.557l2.228-.795-2.307-.557c-.239-.08-.557-.16-.796-.239Zm12.171-16.465-1.193 1.193-.477.477c-3.262 3.102-8.512 6.443-14.398 4.216-2.784-1.034-5.648-1.193-8.273-.477-2.465.715-4.693 1.988-6.681 3.897l-1.034 1.114-.319.398.319.477c.238.318.397.557.556.875l.478.716.557-.716.318-.318c1.909-2.069 3.977-3.341 6.363-3.978 2.148-.556 4.455-.477 6.761.398 1.99.716 4.057.955 6.125.716 3.66-.398 7.318-2.466 10.023-4.773.16-.159.318-.238.477-.397l.239-.239v-.239c0-.477.08-1.034.08-1.511l.079-1.83Z"/><path d="M5.647 12.005c.477-.239 1.034-.398 1.511-.557 2.148-.557 4.455-.478 6.761.397 1.512.557 3.023.796 4.694.796 3.34 0 6.681-1.193 9.784-3.5l1.59-1.273-.715-.556a3.533 3.533 0 0 0-.875-.637l-.478-.318-.397.318c-.16.08-.239.239-.398.318-4.216 3.182-8.432 4.057-12.409 2.546-2.864-1.034-5.727-1.273-8.59-.398-.24.08-.478.16-.796.239l-.16.08-.238.238c0 .08-.08.08-.159.159-.318.477-.716.875-1.034 1.352l-1.511 2.307 2.465-1.273c.398 0 .716-.159.955-.238Zm6.523-5.41.239.08c1.034.398 2.625.795 4.613.795 2.069 0 4.057-.477 6.046-1.272l2.465-1.193-1.67-.557c-.477-.16-.954-.318-1.511-.398h-.239l-.238.08c-.24.08-.478.238-.716.318-2.387.875-4.773 1.034-7.08.397l-.716-.238-.238-.08-.239.08c-.477.159-.954.318-1.432.557l-1.83.795 1.91.557c.159-.08.398 0 .636.08Zm104.859 5.625c-.362-.363-.819-.544-1.37-.544-.551 0-1.016.181-1.394.543-.362.347-.543.788-.543 1.323 0 .536.181.985.543 1.347.378.362.843.543 1.394.543.551 0 1.008-.18 1.37-.543.363-.362.544-.811.544-1.347 0-.535-.181-.976-.544-1.323ZM90.29 25.473c-.599-.504-.93-1.165-.993-1.984l-3.472-.048a5.081 5.081 0 0 0 .897 2.859c.583.85 1.387 1.52 2.41 2.008 1.04.473 2.22.709 3.544.709 1.228 0 2.33-.229 3.307-.685.992-.457 1.764-1.08 2.316-1.867a4.69 4.69 0 0 0 .826-2.717c0-1.04-.236-1.866-.708-2.48a4.022 4.022 0 0 0-1.82-1.394c-.755-.315-1.685-.575-2.787-.78-1.087-.204-1.89-.378-2.41-.52-.52-.157-.921-.354-1.205-.59-.283-.252-.425-.599-.425-1.04 0-.614.236-1.086.709-1.417.472-.33 1.102-.496 1.89-.496.85 0 1.535.22 2.055.661.52.426.819.993.898 1.701h3.473a4.587 4.587 0 0 0-.875-2.67c-.55-.787-1.315-1.401-2.291-1.842-.96-.457-2.048-.685-3.26-.685-1.182 0-2.245.22-3.19.661-.929.426-1.661 1.016-2.197 1.772-.52.756-.78 1.615-.78 2.575 0 1.056.23 1.906.686 2.552a4.555 4.555 0 0 0 1.819 1.44c.74.316 1.653.576 2.74.78 1.103.221 1.914.41 2.434.568.535.141.945.346 1.228.614.3.252.449.598.449 1.04 0 .63-.268 1.125-.803 1.488-.52.346-1.197.52-2.032.52-1.008 0-1.82-.245-2.433-.733Z"/><path fill-rule="evenodd" d="m50.673 12.338-6.048 16.537h3.662l1.276-3.615h6.284l1.276 3.615h3.803l-6-16.538h-4.253Zm-.165 10.064 2.173-6.285 2.197 6.285h-4.37Z" clip-rule="evenodd"/><path d="M107.441 16.59c1.433 0 2.607.441 3.52 1.323.93.882 1.394 2.339 1.394 4.37v6.592h-3.331v-6.45c0-1.008-.205-1.771-.614-2.291-.41-.536-1.024-.803-1.843-.803-.85 0-1.52.29-2.008.874-.473.582-.709 1.394-.709 2.433v6.237h-3.331V12.337h3.331v5.883c.898-1.087 2.095-1.63 3.591-1.63Zm15.832-.425c0-.347.078-.599.236-.756.157-.158.409-.237.756-.237h2.055v-2.835h-2.717c-1.212 0-2.126.292-2.74.875-.614.567-.922 1.386-.922 2.457v1.063h-2.008v2.811h2.008v9.332h3.332v-9.332h5.263v9.332h3.331v-9.332h2.622v-2.811h-2.622v-4.394h-3.331v4.394h-5.263v-.567Zm-5.96.567h-3.331v12.143h3.331V16.732Zm-52.27-4.394h-3.331v16.537h3.33V12.337Zm2.628 4.394h-2.008v2.811h2.008v9.332h3.331v-9.332h2.623v-2.811h-2.623v-4.394h-3.33v4.394Zm10.271 10.631h3.024v-3.686h3.684v-3.023h-3.684v-3.686h-3.025v3.686h-3.686v3.023h3.686v3.686h.001Z"/></g><defs><clipPath id="a"><path fill="#fff" d="M.875 0H134.75v42H.875z"/></clipPath></defs></svg>