<svg xmlns:xlink="http://www.w3.org/1999/xlink"  xmlns="http://www.w3.org/2000/svg" width="134" height="42" fill="none"><g fill="#959595" clip-path="url(#a)"><path fill-rule="evenodd" d="m31.014 7.35-8.476-2.27c-.586-.157-1.06.207-1.06.812v8.775c0 .606.474 1.224 1.06 1.381l8.476 2.271c.585.157 1.059-.207 1.059-.813V8.731c0-.606-.474-1.224-1.06-1.38Zm-8.476-5.56c-2.341-.627-4.238.829-4.238 3.252v8.775c0 2.423 1.897 4.896 4.238 5.523l8.476 2.27c2.34.628 4.238-.828 4.238-3.251V9.583c0-2.423-1.898-4.896-4.239-5.523l-8.476-2.271Z" clip-rule="evenodd"/><path fill-rule="evenodd" d="m24.358 14.5-10.594-2.84c-.585-.156-1.06.208-1.06.813v10.97c0 .605.474 1.223 1.06 1.38l10.595 2.839c.585.157 1.059-.207 1.059-.813V15.88c0-.606-.474-1.224-1.06-1.38ZM13.764 8.37c-2.34-.627-4.238.829-4.238 3.252V22.59c0 2.424 1.897 4.896 4.238 5.523l10.595 2.84c2.34.627 4.237-.83 4.237-3.252V16.73c0-2.422-1.897-4.895-4.238-5.522l-10.594-2.84Z" clip-rule="evenodd"/><path fill-rule="evenodd" d="M17.702 21.648 4.988 18.242c-.585-.157-1.06.207-1.06.813v13.162c0 .606.475 1.224 1.06 1.38l12.714 3.407c.585.157 1.06-.207 1.06-.813V23.03c0-.606-.475-1.224-1.06-1.38ZM4.988 14.951C2.648 14.324.75 15.78.75 18.203v13.162c0 2.423 1.897 4.896 4.238 5.523l12.714 3.407c2.34.627 4.238-.829 4.238-3.252V23.881c0-2.424-1.898-4.896-4.238-5.523L4.988 14.95Z" clip-rule="evenodd"/><path d="M47.685 28.532c.996.457 2.14.686 3.43.686s2.417-.22 3.381-.662c.98-.457 1.74-1.094 2.279-1.91.538-.834.808-1.805.808-2.916v-.294c0-1.03-.237-1.862-.71-2.5a4.238 4.238 0 0 0-1.813-1.445 5.57 5.57 0 0 0-2.23-.465h-.907v-.392l5.17-2.744v-4.165H44.941v2.793h8.673v.392l-5.537 2.94v3.43h3.43c.555 0 1.053.082 1.495.245.44.147.792.384 1.053.71.261.327.392.752.392 1.274v.245c0 .768-.294 1.405-.882 1.911-.572.507-1.388.76-2.45.76-1.045 0-1.887-.27-2.523-.809-.637-.555-.956-1.29-.956-2.205v-.343H44.5v.441c0 1.176.278 2.197.833 3.063.572.85 1.356 1.503 2.352 1.96Z"/><path fill-rule="evenodd" d="M68.863 12.386c-.817-.44-1.764-.661-2.842-.661h-7.056v17.15h3.234v-6.272h3.822c1.045 0 1.976-.212 2.793-.637a4.944 4.944 0 0 0 1.96-1.838c.49-.8.735-1.73.735-2.793v-.343c0-1.078-.237-2.009-.71-2.793a4.614 4.614 0 0 0-1.936-1.813Zm-1.299 6.64c-.473.425-1.094.637-1.862.637H62.2v-4.998h3.503c.768 0 1.389.212 1.862.637.474.425.71 1.004.71 1.74v.244c0 .735-.236 1.315-.71 1.74Zm10.555 10.192c-1.209 0-2.295-.245-3.259-.735a5.511 5.511 0 0 1-2.278-2.132c-.556-.93-.833-2.05-.833-3.356v-.392c0-1.307.277-2.426.833-3.357a5.511 5.511 0 0 1 2.278-2.131c.964-.49 2.05-.735 3.259-.735 1.208 0 2.294.245 3.258.735s1.723 1.2 2.279 2.131c.555.931.833 2.05.833 3.357v.392c0 1.306-.278 2.425-.833 3.356a5.513 5.513 0 0 1-2.279 2.132c-.963.49-2.05.735-3.258.735Zm0-2.744c.947 0 1.731-.302 2.352-.907.62-.62.93-1.502.93-2.646v-.245c0-1.143-.31-2.017-.93-2.621-.605-.62-1.389-.931-2.352-.931-.948 0-1.732.31-2.352.93-.621.605-.931 1.479-.931 2.622v.245c0 1.144.31 2.026.93 2.646.621.605 1.405.907 2.353.907Z" clip-rule="evenodd"/><path d="M90.474 17.017c-.408.229-.702.588-.882 1.078h-.44v-1.372h-3.039v12.152H89.2v-6.91c0-.865.253-1.502.76-1.91.506-.425 1.151-.637 1.935-.637h1.52v-.002h3.147v6.715c0 .833.246 1.503.736 2.009.505.49 1.159.735 1.96.735h3.43v-2.548h-2.352c-.458 0-.686-.245-.686-.735v-6.176h3.332v-2.739H99.65V12.95h-3.088v3.727h-3.148v-.003h-1.47c-.555 0-1.045.114-1.47.343Z"/><path fill-rule="evenodd" d="M105.996 28.777c.686.294 1.462.44 2.327.44.85 0 1.519-.122 2.009-.367s.85-.522 1.078-.833c.229-.326.376-.588.441-.784h.466v.025c0 .49.196.882.588 1.176.392.294.89.44 1.494.44h2.058v-2.547h-.98c-.457 0-.686-.245-.686-.735v-4.533c0-1.519-.465-2.678-1.396-3.479-.931-.8-2.197-1.2-3.798-1.2-1.045 0-1.935.163-2.67.49-.719.31-1.299.727-1.74 1.25a4.918 4.918 0 0 0-.931 1.69l2.842.955c.115-.555.36-1.004.735-1.347.376-.36.948-.54 1.715-.54.784 0 1.356.189 1.715.564.36.36.539.825.539 1.397v.686h-3.332c-.914 0-1.731.147-2.45.44-.702.279-1.257.703-1.666 1.275-.392.555-.588 1.25-.588 2.082 0 .833.196 1.544.588 2.132a3.999 3.999 0 0 0 1.642 1.323Zm4.973-2.769c-.539.474-1.241.71-2.107.71-.653 0-1.151-.138-1.494-.416a1.324 1.324 0 0 1-.515-1.078c0-.44.164-.784.49-1.029.327-.245.776-.367 1.348-.367h3.111v.245c0 .8-.277 1.445-.833 1.935Z" clip-rule="evenodd"/><path d="M123.924 28.189c1.012.686 2.311 1.029 3.895 1.029 1.552 0 2.785-.343 3.7-1.03.931-.701 1.396-1.69 1.396-2.964 0-.849-.22-1.519-.661-2.009-.425-.506-1.013-.89-1.764-1.151a13.94 13.94 0 0 0-2.475-.662l-.686-.122c-.555-.098-.996-.237-1.323-.417-.326-.196-.49-.49-.49-.882a.93.93 0 0 1 .466-.833c.31-.212.759-.318 1.347-.318s1.078.13 1.47.392c.409.261.678.702.809 1.323l2.866-.882c-.277-.98-.865-1.772-1.764-2.377-.898-.604-2.025-.906-3.381-.906-1.437 0-2.597.326-3.479.98-.882.637-1.323 1.56-1.323 2.768 0 .8.213 1.454.637 1.96.425.507.988.907 1.691 1.2.702.279 1.478.499 2.327.662l.686.123c.719.13 1.242.302 1.568.514.327.196.49.482.49.858 0 .375-.171.694-.514.955-.343.245-.874.368-1.593.368-.473 0-.914-.066-1.323-.196a2.407 2.407 0 0 1-1.004-.71c-.262-.327-.449-.776-.564-1.348l-2.842.735c.213 1.274.825 2.254 1.838 2.94Zm-6.434.686v-17.15h3.087v17.15h-3.087Z"/></g><defs><clipPath id="a"><path fill="#fff" d="M.75 0h133v42H.75z"/></clipPath></defs></svg>