<svg xmlns:xlink="http://www.w3.org/1999/xlink"  xmlns="http://www.w3.org/2000/svg" width="187" height="42" fill="none"><g fill="#959595" clip-path="url(#a)"><path fill-rule="evenodd" d="M4.005 25.027c.793.79.793 2.069 0 2.858l-.041.04a2.04 2.04 0 0 1-2.874 0 2.012 2.012 0 0 1 0-2.858l.04-.04a2.04 2.04 0 0 1 2.875 0Zm9.555.609c.792.79.79 2.07-.005 2.858l-5.63 5.577a2.04 2.04 0 0 1-2.875-.005c-.792-.79-.79-2.07.005-2.858l5.63-5.577a2.041 2.041 0 0 1 2.875.005Zm7.64 9.601a2.04 2.04 0 0 1 2.819-.56l.122.08a2.014 2.014 0 0 1 .563 2.802 2.04 2.04 0 0 1-2.818.56l-.122-.08a2.014 2.014 0 0 1-.564-2.802Zm13.414-10.331a2.012 2.012 0 0 1 0 2.858l-2.764 2.748a2.04 2.04 0 0 1-2.875 0 2.013 2.013 0 0 1 0-2.858l2.764-2.748a2.04 2.04 0 0 1 2.875 0Zm.041-10.165c.793.79.793 2.07 0 2.858L14.228 37.908a2.04 2.04 0 0 1-2.874 0 2.012 2.012 0 0 1 0-2.858L31.78 14.741a2.04 2.04 0 0 1 2.875 0Zm-3.863-6.244c.794.79.794 2.069 0 2.858l-11.748 11.68a2.04 2.04 0 0 1-2.874 0 2.013 2.013 0 0 1 0-2.858l11.748-11.68a2.04 2.04 0 0 1 2.874 0Zm-6.201-3.961a2.01 2.01 0 0 1 .002 2.857L9.492 22.428a2.04 2.04 0 0 1-2.874.002 2.013 2.013 0 0 1-.002-2.858L21.717 4.538a2.04 2.04 0 0 1 2.874-.002ZM9.637 9.349c.792.79.79 2.07-.005 2.857l-5.915 5.86a2.041 2.041 0 0 1-2.874-.004c-.793-.79-.79-2.07.005-2.858l5.914-5.86a2.04 2.04 0 0 1 2.875.005ZM13.26 3.5c1.122 0 2.032.905 2.032 2.02v.203c0 1.116-.91 2.02-2.033 2.02a2.027 2.027 0 0 1-2.032-2.02v-.202c0-1.116.91-2.02 2.032-2.02Z" clip-rule="evenodd"/><path d="M58.222 20.795c.59.803.898 1.796.898 2.93 0 .992-.26 1.866-.756 2.646a4.985 4.985 0 0 1-2.103 1.842c-.897.45-1.913.662-3.047.662H44V10.21h8.6c1.771 0 3.165.45 4.205 1.347 1.016.898 1.535 2.079 1.535 3.567 0 .992-.236 1.867-.708 2.575a3.798 3.798 0 0 1-1.961 1.512c1.087.237 1.937.78 2.551 1.583ZM47.685 17.89h3.71c1.086 0 1.89-.141 2.41-.472.52-.33.779-.827.779-1.512 0-.709-.284-1.252-.827-1.607-.543-.33-1.37-.52-2.48-.52h-3.592v4.111Zm6.804 6.875c.544-.354.827-.898.827-1.654 0-.685-.283-1.204-.803-1.535-.52-.33-1.346-.496-2.457-.496h-4.37v4.229h4.276c1.134 0 1.96-.166 2.527-.544Zm6.576-10.301c-.425-.426-.637-.945-.637-1.607 0-.614.212-1.134.637-1.56.426-.4.945-.613 1.607-.613.638 0 1.158.212 1.583.614.425.425.638.945.638 1.56 0 .637-.213 1.157-.638 1.582-.425.425-.945.638-1.583.638-.662 0-1.181-.19-1.607-.614ZM60.9 16.59h3.52v12.285H60.9V16.59Zm8.11 11.836a5.956 5.956 0 0 1-2.315-2.339c-.567-.992-.827-2.102-.827-3.378 0-1.252.26-2.363.827-3.355.543-.992 1.323-1.748 2.315-2.315.992-.544 2.126-.827 3.402-.827 1.276 0 2.41.283 3.402.827a6.055 6.055 0 0 1 2.316 2.315c.567.992.85 2.103.85 3.355 0 1.276-.284 2.386-.85 3.378a6.177 6.177 0 0 1-2.34 2.339c-.992.567-2.126.827-3.378.827-1.276 0-2.41-.26-3.402-.827Zm5.6-3.19c.566-.66.85-1.488.85-2.527 0-1.016-.284-1.843-.85-2.505-.568-.637-1.3-.968-2.198-.968-.898 0-1.606.33-2.173.968-.567.662-.85 1.489-.85 2.505 0 1.04.283 1.866.85 2.528.567.661 1.275.992 2.173.992.898 0 1.63-.33 2.197-.992Zm7.003 2.883c-1.063-.756-1.606-1.82-1.63-3.166h3.473c0 .59.26 1.04.732 1.37.473.331 1.087.497 1.843.497.638 0 1.158-.119 1.536-.402.378-.284.59-.614.59-.992 0-.45-.236-.756-.708-.945-.473-.166-1.182-.331-2.174-.473-1.04-.142-1.89-.307-2.551-.496a3.665 3.665 0 0 1-1.725-1.063c-.472-.52-.709-1.252-.709-2.197 0-1.229.496-2.221 1.536-2.953 1.04-.71 2.457-1.087 4.252-1.087 1.63 0 2.93.401 3.922 1.181.993.78 1.536 1.843 1.654 3.19h-3.45c-.046-.591-.259-1.064-.66-1.418-.426-.33-.97-.52-1.678-.52-.662 0-1.158.142-1.512.402-.378.283-.544.638-.544 1.063 0 .425.213.732.662.898.449.189 1.157.33 2.103.425 1.039.142 1.913.33 2.599.52.661.189 1.252.567 1.748 1.087.472.52.732 1.275.732 2.268 0 1.228-.52 2.173-1.535 2.882-1.016.708-2.41 1.063-4.182 1.063-1.843 0-3.284-.378-4.324-1.134Z"/><path d="M92.593 30.505h1.205c.756.024 1.37-.07 1.843-.284.449-.212.874-.59 1.276-1.157L91.365 16.59h3.685l3.686 8.198 3.071-8.198h3.662l-5.009 13.183c-.614 1.44-1.417 2.433-2.433 3-1.016.567-2.315.827-3.922.827h-1.512v-3.095Zm13.463-13.915h3.496v1.772c.426-.662.969-1.205 1.678-1.583.709-.378 1.535-.567 2.48-.567 3.024 0 4.56 1.913 4.56 5.717v6.946h-3.544v-6.757c0-.898-.212-1.583-.638-2.102-.425-.52-1.015-.78-1.771-.78-.851 0-1.536.307-2.032.921-.496.614-.733 1.418-.733 2.434v6.284h-3.496V16.59Zm19.179 12.38c-.945 0-1.677-.095-2.197-.284-.543-.19-.945-.52-1.181-1.016-.26-.496-.378-1.205-.355-2.103V19.78h-2.622l.221-3.19h2.401v-3.307h3.497v3.308h3.213l-.221 3.19h-2.992v3.992c0 .614.023 1.04.071 1.3a.821.821 0 0 0 .378.59c.189.118.496.165.945.165.33 0 1.274-.023 1.817-.07l-.219 3.094a33.625 33.625 0 0 1-2.756.118Zm4.298-18.759h3.496v8.127a4.444 4.444 0 0 1 1.678-1.56c.709-.377 1.535-.566 2.48-.566 3.024 0 4.56 1.914 4.56 5.694v6.969h-3.544V22.07c0-.898-.212-1.583-.638-2.08-.425-.495-1.015-.755-1.771-.755-.851 0-1.536.307-2.032.898-.496.614-.733 1.417-.733 2.41v6.33h-3.496V10.212Zm16.622 18.215a5.895 5.895 0 0 1-2.291-2.339c-.544-.992-.803-2.102-.803-3.378 0-1.252.259-2.363.803-3.355.543-.992 1.299-1.748 2.291-2.315.969-.544 2.079-.827 3.332-.827a5.62 5.62 0 0 1 2.929.803c.874.52 1.559 1.276 2.079 2.244.496.993.756 2.103.756 3.379v1.134h-8.623c.071.827.354 1.465.827 1.937.472.473 1.157.685 2.055.685.591 0 1.087-.141 1.465-.425.378-.284.614-.638.709-1.087h3.496c-.189 1.323-.827 2.386-1.866 3.19-1.04.803-2.315 1.18-3.827 1.18-1.253 0-2.363-.259-3.332-.826Zm5.576-6.804c-.047-.709-.26-1.276-.685-1.725-.425-.425-.992-.661-1.701-.661-.803 0-1.418.212-1.867.638-.448.425-.732 1.016-.826 1.748h5.079Zm6.151 6.497c-1.063-.756-1.606-1.82-1.63-3.166h3.473c0 .59.26 1.04.732 1.37.473.331 1.087.497 1.843.497.638 0 1.158-.119 1.536-.402.378-.284.59-.614.59-.992 0-.45-.236-.756-.709-.945-.472-.166-1.181-.331-2.173-.473-1.04-.142-1.89-.307-2.552-.496a3.663 3.663 0 0 1-1.724-1.063c-.473-.52-.709-1.252-.709-2.197 0-1.229.496-2.221 1.536-2.953 1.039-.71 2.457-1.087 4.252-1.087 1.63 0 2.93.401 3.922 1.181s1.536 1.843 1.654 3.19h-3.45c-.047-.591-.259-1.064-.661-1.418-.425-.33-.969-.52-1.677-.52-.662 0-1.158.142-1.512.402-.378.283-.544.638-.544 1.063 0 .425.213.732.662.898.449.189 1.157.33 2.102.425 1.04.142 1.914.33 2.599.52.662.189 1.252.567 1.748 1.087.473.52.733 1.275.733 2.268 0 1.228-.52 2.173-1.536 2.882-1.016.708-2.41 1.063-4.182 1.063-1.842 0-3.283-.378-4.323-1.134Zm11.646-13.655c-.425-.426-.638-.945-.638-1.607 0-.614.213-1.134.638-1.56.426-.4.945-.613 1.607-.613.638 0 1.157.212 1.583.614.425.425.638.945.638 1.56 0 .637-.213 1.157-.638 1.582-.426.425-.945.638-1.583.638-.662 0-1.181-.19-1.607-.614Zm-.165 2.126h3.52v12.285h-3.52V16.59Zm15.009 11.529c1.063-.756 1.606-1.82 1.63-3.166h-3.473c0 .59-.26 1.04-.732 1.37-.473.331-1.087.497-1.843.497-.638 0-1.158-.119-1.536-.402-.378-.284-.59-.614-.59-.992 0-.45.236-.756.709-.945.472-.166 1.181-.331 2.173-.473 1.04-.142 1.89-.307 2.552-.496a3.663 3.663 0 0 0 1.724-1.063c.473-.52.709-1.252.709-2.197 0-1.229-.496-2.221-1.536-2.953-1.039-.71-2.457-1.087-4.252-1.087-1.63 0-2.93.401-3.922 1.181s-1.536 1.843-1.654 3.19h3.45c.047-.591.259-1.064.661-1.418.425-.33.969-.52 1.677-.52.662 0 1.158.142 1.512.402.378.283.544.638.544 1.063 0 .425-.213.732-.662.898-.449.189-1.157.33-2.102.425a20.04 20.04 0 0 0-2.599.52c-.662.189-1.252.567-1.748 1.087-.473.52-.733 1.275-.733 2.268 0 1.228.52 2.173 1.536 2.882 1.016.708 2.41 1.063 4.182 1.063 1.842 0 3.283-.378 4.323-1.134Z"/></g><defs><clipPath id="a"><path fill="#fff" d="M.25 0h186.375v42H.25z"/></clipPath></defs></svg>