<svg xmlns:xlink="http://www.w3.org/1999/xlink"  xmlns="http://www.w3.org/2000/svg" width="540" height="270" fill="none"><path fill="#fff" d="M0 12C0 5.373 5.373 0 12 0h516c6.627 0 12 5.373 12 12v258H0V12Z"/><mask id="a" fill="#fff"><path d="M0 0h540v29H0V0Z"/></mask><path fill="#EEE" d="M540 28H0v2h540v-2Z" mask="url(#a)"/><rect width="10" height="10" x="10" y="10" fill="#FF676C" rx="5"/><rect width="10" height="10" x="26" y="10" fill="#FFDF00" rx="5"/><rect width="10" height="10" x="42" y="10" fill="#00E27E" rx="5"/><rect width="492" height="160" x="24" y="53" fill="#F4F4F4" rx="12"/><rect width="276" height="23" x="139" y="101" fill="#DB3BFB" fill-opacity=".1" rx="4"/><path fill="#1A1D21" d="M41.566 90h-1.314l4.734-12.888h1.602L51.376 90h-1.35l-1.26-3.42h-5.94L41.566 90Zm4.05-11.07-2.394 6.516h5.13L45.94 78.93c-.054-.18-.144-.396-.162-.522-.018.108-.09.342-.162.522ZM53.978 90h-1.08V76.878h1.242v6.102c.612-1.278 1.8-1.926 3.276-1.926 2.538 0 4.014 1.98 4.014 4.608 0 2.61-1.512 4.554-4.05 4.554-1.458 0-2.664-.648-3.276-1.998L53.978 90Zm.18-4.374c0 2.016 1.116 3.456 3.024 3.456 1.89 0 2.988-1.44 2.988-3.456 0-1.998-1.098-3.456-2.988-3.456-1.908 0-3.024 1.458-3.024 3.456Zm8.513 1.926h1.188c0 1.008.756 1.638 1.98 1.638 1.35 0 2.142-.576 2.142-1.512 0-.72-.36-1.134-1.386-1.386l-1.494-.378c-1.512-.378-2.25-1.17-2.25-2.358 0-1.53 1.278-2.502 3.15-2.502 1.836 0 3.024 1.008 3.078 2.628h-1.206c-.036-1.008-.738-1.602-1.908-1.602-1.224 0-1.908.522-1.908 1.458 0 .666.468 1.134 1.422 1.368l1.494.378c1.512.378 2.196 1.08 2.196 2.34 0 1.566-1.332 2.592-3.312 2.592-1.962 0-3.186-1.044-3.186-2.664ZM73.212 90h-1.224v-7.668h-1.746v-1.044h1.746v-2.754h1.224v2.754h1.746v1.044h-1.746V90Zm7.917-8.82v1.116h-.684c-1.602 0-2.628 1.08-2.628 2.736V90h-1.242v-8.712h1.17l.09 1.35c.342-.936 1.26-1.548 2.484-1.548.27 0 .504.018.81.09Zm3.802 9.036c-1.854 0-2.952-1.044-2.952-2.574 0-1.602 1.224-2.61 3.258-2.772l2.88-.234v-.288c0-1.71-1.026-2.25-2.304-2.25-1.512 0-2.412.684-2.412 1.854h-1.134c0-1.764 1.44-2.898 3.582-2.898 2.016 0 3.492 1.008 3.492 3.312V90h-1.044l-.162-1.53c-.54 1.098-1.728 1.746-3.204 1.746Zm.288-1.008c1.836 0 2.898-1.278 2.898-3.168v-.468l-2.574.198c-1.638.144-2.304.864-2.304 1.836 0 1.062.792 1.602 1.98 1.602Zm6.002-3.546c0-2.736 1.674-4.608 4.212-4.608 2.016 0 3.492 1.17 3.834 2.97h-1.242c-.324-1.206-1.368-1.872-2.574-1.872-1.764 0-3.006 1.35-3.006 3.492 0 2.07 1.152 3.456 2.916 3.456 1.296 0 2.34-.72 2.682-1.836h1.26c-.414 1.782-1.962 2.952-3.942 2.952-2.466 0-4.14-1.818-4.14-4.554ZM103.183 90h-1.224v-7.668h-1.746v-1.044h1.746v-2.754h1.224v2.754h1.746v1.044h-1.746V90Zm5.014-.612c0 1.116-.864 2.088-1.98 2.25v-.666c.648-.108 1.116-.576 1.116-1.08a.807.807 0 0 1-.468.126c-.504 0-.936-.36-.936-.972 0-.63.432-1.08 1.062-1.08.648 0 1.206.522 1.206 1.422Zm8.119-10.494a.922.922 0 0 1-.918-.918c0-.504.414-.936.918-.936s.936.432.936.936-.432.918-.936.918ZM115.704 90v-8.712h1.242V90h-1.242Zm8.386-8.82v1.116h-.684c-1.602 0-2.628 1.08-2.628 2.736V90h-1.242v-8.712h1.17l.09 1.35c.342-.936 1.26-1.548 2.484-1.548.27 0 .504.018.81.09Zm2.263-2.286a.922.922 0 0 1-.918-.918c0-.504.414-.936.918-.936s.936.432.936.936-.432.918-.936.918ZM125.741 90v-8.712h1.242V90h-1.242Zm7.252.216c-2.538 0-4.032-1.944-4.032-4.554 0-2.628 1.494-4.608 4.086-4.608 1.44 0 2.592.63 3.204 1.89v-6.066h1.242V90h-1.08l-.126-1.782c-.612 1.35-1.836 1.998-3.294 1.998Zm.216-1.134c1.908 0 3.024-1.44 3.024-3.456 0-1.998-1.116-3.456-3.024-3.456-1.89 0-2.988 1.458-2.988 3.456 0 2.016 1.098 3.456 2.988 3.456Zm10.53 1.134c-2.556 0-4.266-1.836-4.266-4.572 0-2.718 1.692-4.59 4.176-4.59 2.358 0 3.96 1.674 3.96 4.14v.612h-6.93c.09 2.124 1.206 3.348 3.078 3.348 1.422 0 2.34-.612 2.664-1.764h1.188c-.468 1.836-1.818 2.826-3.87 2.826Zm-.09-8.1c-1.638 0-2.718 1.08-2.934 2.79h5.652c0-1.674-1.08-2.79-2.718-2.79Zm5.208 5.436h1.188c0 1.008.756 1.638 1.98 1.638 1.35 0 2.142-.576 2.142-1.512 0-.72-.36-1.134-1.386-1.386l-1.494-.378c-1.512-.378-2.25-1.17-2.25-2.358 0-1.53 1.278-2.502 3.15-2.502 1.836 0 3.024 1.008 3.078 2.628h-1.206c-.036-1.008-.738-1.602-1.908-1.602-1.224 0-1.908.522-1.908 1.458 0 .666.468 1.134 1.422 1.368l1.494.378c1.512.378 2.196 1.08 2.196 2.34 0 1.566-1.332 2.592-3.312 2.592-1.962 0-3.186-1.044-3.186-2.664Zm7.931-1.89c0-2.736 1.674-4.608 4.212-4.608 2.016 0 3.492 1.17 3.834 2.97h-1.242c-.324-1.206-1.368-1.872-2.574-1.872-1.764 0-3.006 1.35-3.006 3.492 0 2.07 1.152 3.456 2.916 3.456 1.296 0 2.34-.72 2.682-1.836h1.26c-.414 1.782-1.962 2.952-3.942 2.952-2.466 0-4.14-1.818-4.14-4.554Zm13.617 4.554c-2.556 0-4.266-1.836-4.266-4.572 0-2.718 1.692-4.59 4.176-4.59 2.358 0 3.96 1.674 3.96 4.14v.612h-6.93c.09 2.124 1.206 3.348 3.078 3.348 1.422 0 2.34-.612 2.664-1.764h1.188c-.468 1.836-1.818 2.826-3.87 2.826Zm-.09-8.1c-1.638 0-2.718 1.08-2.934 2.79h5.652c0-1.674-1.08-2.79-2.718-2.79ZM177.503 90h-1.242v-8.712h1.08l.18 1.512c.576-1.116 1.728-1.746 2.988-1.746 2.394 0 3.384 1.422 3.384 3.618V90h-1.242v-5.058c0-2.034-.918-2.754-2.358-2.754-1.782 0-2.79 1.296-2.79 3.258V90Zm10.863 0h-1.224v-7.668h-1.746v-1.044h1.746v-2.754h1.224v2.754h1.746v1.044h-1.746V90Zm7.744-4.356c0-2.664 1.872-4.59 4.428-4.59s4.428 1.926 4.428 4.59c0 2.646-1.872 4.572-4.428 4.572s-4.428-1.926-4.428-4.572Zm1.26-.018c0 2.052 1.296 3.474 3.168 3.474 1.854 0 3.168-1.422 3.168-3.474 0-2.016-1.314-3.456-3.168-3.456-1.872 0-3.168 1.44-3.168 3.456ZM208.032 90h-1.08V76.878h1.242v6.102c.612-1.278 1.8-1.926 3.276-1.926 2.538 0 4.014 1.98 4.014 4.608 0 2.61-1.512 4.554-4.05 4.554-1.458 0-2.664-.648-3.276-1.998L208.032 90Zm.18-4.374c0 2.016 1.116 3.456 3.024 3.456 1.89 0 2.988-1.44 2.988-3.456 0-1.998-1.098-3.456-2.988-3.456-1.908 0-3.024 1.458-3.024 3.456Zm9.882-6.732a.926.926 0 0 1-.936-.918c0-.504.414-.936.936-.936.486 0 .918.432.918.936a.934.934 0 0 1-.918.918Zm-2.952 14.922.234-1.134c.36.09.576.126.846.126.864 0 1.242-.504 1.242-1.566v-9.954h1.242v10.026c0 1.656-.864 2.664-2.394 2.664-.468 0-.72-.036-1.17-.162Zm9.808-3.6c-2.556 0-4.266-1.836-4.266-4.572 0-2.718 1.692-4.59 4.176-4.59 2.358 0 3.96 1.674 3.96 4.14v.612h-6.93c.09 2.124 1.206 3.348 3.078 3.348 1.422 0 2.34-.612 2.664-1.764h1.188c-.468 1.836-1.818 2.826-3.87 2.826Zm-.09-8.1c-1.638 0-2.718 1.08-2.934 2.79h5.652c0-1.674-1.08-2.79-2.718-2.79Zm5.334 3.546c0-2.736 1.674-4.608 4.212-4.608 2.016 0 3.492 1.17 3.834 2.97h-1.242c-.324-1.206-1.368-1.872-2.574-1.872-1.764 0-3.006 1.35-3.006 3.492 0 2.07 1.152 3.456 2.916 3.456 1.296 0 2.34-.72 2.682-1.836h1.26c-.414 1.782-1.962 2.952-3.942 2.952-2.466 0-4.14-1.818-4.14-4.554ZM242.155 90h-1.224v-7.668h-1.746v-1.044h1.746v-2.754h1.224v2.754h1.746v1.044h-1.746V90Zm10.192 0-2.88-8.712h1.278l1.71 5.256c.198.576.36 1.17.54 1.872.144-.702.432-1.584.522-1.872l1.728-5.256h1.278l1.71 5.256c.162.468.378 1.224.54 1.872.18-.72.216-.936.522-1.872l1.728-5.256h1.296L259.367 90h-1.206l-1.8-5.472a14.73 14.73 0 0 1-.468-1.71c-.126.468-.27.99-.504 1.71l-1.8 5.472h-1.242Zm12.135-11.106a.922.922 0 0 1-.918-.918c0-.504.414-.936.918-.936s.936.432.936.936-.432.918-.936.918ZM263.87 90v-8.712h1.242V90h-1.242Zm5.83 0h-1.224v-7.668h-1.746v-1.044h1.746v-2.754h1.224v2.754h1.746v1.044H269.7V90Zm4.606-.018h-1.242V76.878h1.242V82.8c.558-1.044 1.62-1.746 3.078-1.746 2.286 0 3.312 1.422 3.312 3.618V90h-1.242v-5.058c0-2.034-.954-2.754-2.304-2.754-1.872 0-2.844 1.386-2.844 3.06v4.734Zm16.359.234c-1.854 0-2.952-1.044-2.952-2.574 0-1.602 1.224-2.61 3.258-2.772l2.88-.234v-.288c0-1.71-1.026-2.25-2.304-2.25-1.512 0-2.412.684-2.412 1.854h-1.134c0-1.764 1.44-2.898 3.582-2.898 2.016 0 3.492 1.008 3.492 3.312V90h-1.044l-.162-1.53c-.54 1.098-1.728 1.746-3.204 1.746Zm.288-1.008c1.836 0 2.898-1.278 2.898-3.168v-.468l-2.574.198c-1.638.144-2.304.864-2.304 1.836 0 1.062.792 1.602 1.98 1.602Zm18.375.792h-1.242v-7.668h-3.924V90h-1.242v-7.668h-1.332v-1.044h1.332v-1.692c0-1.962 1.062-2.718 2.358-2.718.306 0 .666.018.954.072v1.08h-.738c-1.062 0-1.332.54-1.332 1.566v1.692h3.924v-4.41h1.242V90Zm8.774-8.712h1.242V90h-1.08l-.162-1.476c-.486 1.008-1.692 1.692-3.06 1.692-2.052 0-3.168-1.404-3.168-3.528V81.27h1.26v5.022c0 2.07.918 2.808 2.304 2.808 1.674 0 2.664-1.116 2.664-3.186v-4.626Zm4.441-2.394a.922.922 0 0 1-.918-.918c0-.504.414-.936.918-.936s.936.432.936.936-.432.918-.936.918ZM321.931 90v-8.712h1.242V90h-1.242Zm7.252.216c-2.538 0-4.032-1.944-4.032-4.554 0-2.628 1.494-4.608 4.086-4.608 1.44 0 2.592.63 3.204 1.89v-6.066h1.242V90h-1.08l-.126-1.782c-.612 1.35-1.836 1.998-3.294 1.998Zm.216-1.134c1.908 0 3.024-1.44 3.024-3.456 0-1.998-1.116-3.456-3.024-3.456-1.89 0-2.988 1.458-2.988 3.456 0 2.016 1.098 3.456 2.988 3.456Zm14.37 1.134c-1.854 0-2.952-1.044-2.952-2.574 0-1.602 1.224-2.61 3.258-2.772l2.88-.234v-.288c0-1.71-1.026-2.25-2.304-2.25-1.512 0-2.412.684-2.412 1.854h-1.134c0-1.764 1.44-2.898 3.582-2.898 2.016 0 3.492 1.008 3.492 3.312V90h-1.044l-.162-1.53c-.54 1.098-1.728 1.746-3.204 1.746Zm.288-1.008c1.836 0 2.898-1.278 2.898-3.168v-.468l-2.574.198c-1.638.144-2.304.864-2.304 1.836 0 1.062.792 1.602 1.98 1.602Zm7.856.792h-1.242v-8.712h1.08l.18 1.512c.576-1.116 1.728-1.746 2.988-1.746 2.394 0 3.384 1.422 3.384 3.618V90h-1.242v-5.058c0-2.034-.918-2.754-2.358-2.754-1.782 0-2.79 1.296-2.79 3.258V90Zm12.285.216c-2.538 0-4.032-1.944-4.032-4.554 0-2.628 1.494-4.608 4.086-4.608 1.44 0 2.592.63 3.204 1.89v-6.066h1.242V90h-1.08l-.126-1.782c-.612 1.35-1.836 1.998-3.294 1.998Zm.216-1.134c1.908 0 3.024-1.44 3.024-3.456 0-1.998-1.116-3.456-3.024-3.456-1.89 0-2.988 1.458-2.988 3.456 0 2.016 1.098 3.456 2.988 3.456Zm11.274-3.69c0-2.376 1.53-4.338 4.086-4.338 1.512 0 2.664.702 3.222 1.98l.126-1.746h1.08v8.442c0 2.592-1.656 4.284-4.212 4.284-2.232 0-3.798-1.26-4.14-3.366h1.242c.27 1.404 1.35 2.232 2.916 2.232 1.782 0 2.97-1.206 2.97-3.024v-2.07c-.594 1.224-1.8 1.944-3.294 1.944-2.484 0-3.996-1.962-3.996-4.338Zm1.242-.018c0 1.782 1.098 3.24 2.934 3.24 1.89 0 3.006-1.368 3.006-3.24 0-1.854-1.08-3.222-2.988-3.222-1.872 0-2.952 1.458-2.952 3.222ZM388.09 90h-1.242V76.878h1.242V90Zm2.03-4.356c0-2.664 1.872-4.59 4.428-4.59s4.428 1.926 4.428 4.59c0 2.646-1.872 4.572-4.428 4.572s-4.428-1.926-4.428-4.572Zm1.26-.018c0 2.052 1.296 3.474 3.168 3.474 1.854 0 3.168-1.422 3.168-3.474 0-2.016-1.314-3.456-3.168-3.456-1.872 0-3.168 1.44-3.168 3.456Zm8.844 1.926h1.188c0 1.008.756 1.638 1.98 1.638 1.35 0 2.142-.576 2.142-1.512 0-.72-.36-1.134-1.386-1.386l-1.494-.378c-1.512-.378-2.25-1.17-2.25-2.358 0-1.53 1.278-2.502 3.15-2.502 1.836 0 3.024 1.008 3.078 2.628h-1.206c-.036-1.008-.738-1.602-1.908-1.602-1.224 0-1.908.522-1.908 1.458 0 .666.468 1.134 1.422 1.368l1.494.378c1.512.378 2.196 1.08 2.196 2.34 0 1.566-1.332 2.592-3.312 2.592-1.962 0-3.186-1.044-3.186-2.664Zm7.805 0h1.188c0 1.008.756 1.638 1.98 1.638 1.35 0 2.142-.576 2.142-1.512 0-.72-.36-1.134-1.386-1.386l-1.494-.378c-1.512-.378-2.25-1.17-2.25-2.358 0-1.53 1.278-2.502 3.15-2.502 1.836 0 3.024 1.008 3.078 2.628h-1.206c-.036-1.008-.738-1.602-1.908-1.602-1.224 0-1.908.522-1.908 1.458 0 .666.468 1.134 1.422 1.368l1.494.378c1.512.378 2.196 1.08 2.196 2.34 0 1.566-1.332 2.592-3.312 2.592-1.962 0-3.186-1.044-3.186-2.664Zm7.485 6.246v-1.026h.954c.756 0 1.512-.054 1.944-1.224l.378-1.026-3.528-9.234h1.314l2.808 7.596 2.754-7.596h1.278l-3.996 10.71c-.504 1.368-1.35 1.926-2.592 1.926-.522 0-.918-.036-1.314-.126ZM43.798 118.216c-1.854 0-2.952-1.044-2.952-2.574 0-1.602 1.224-2.61 3.258-2.772l2.88-.234v-.288c0-1.71-1.026-2.25-2.304-2.25-1.512 0-2.412.684-2.412 1.854h-1.134c0-1.764 1.44-2.898 3.582-2.898 2.016 0 3.492 1.008 3.492 3.312V118h-1.044l-.162-1.53c-.54 1.098-1.728 1.746-3.204 1.746Zm.288-1.008c1.836 0 2.898-1.278 2.898-3.168v-.468l-2.574.198c-1.638.144-2.304.864-2.304 1.836 0 1.062.792 1.602 1.98 1.602Zm6.614 4.59v-12.51h1.08l.126 1.764c.612-1.35 1.836-1.998 3.294-1.998 2.52 0 4.032 1.926 4.032 4.554s-1.458 4.608-4.032 4.608c-1.476 0-2.646-.63-3.258-1.89v5.472H50.7Zm1.26-8.154c0 1.998 1.116 3.456 3.024 3.456 1.89 0 2.988-1.458 2.988-3.456 0-2.016-1.098-3.456-2.988-3.456-1.908 0-3.024 1.44-3.024 3.456Zm9.252 8.154v-12.51h1.08l.126 1.764c.612-1.35 1.836-1.998 3.294-1.998 2.52 0 4.032 1.926 4.032 4.554s-1.458 4.608-4.032 4.608c-1.476 0-2.646-.63-3.258-1.89v5.472h-1.242Zm1.26-8.154c0 1.998 1.116 3.456 3.024 3.456 1.89 0 2.988-1.458 2.988-3.456 0-2.016-1.098-3.456-2.988-3.456-1.908 0-3.024 1.44-3.024 3.456Zm12.906 4.572c-2.556 0-4.266-1.836-4.266-4.572 0-2.718 1.692-4.59 4.176-4.59 2.358 0 3.96 1.674 3.96 4.14v.612h-6.93c.09 2.124 1.206 3.348 3.078 3.348 1.422 0 2.34-.612 2.664-1.764h1.188c-.468 1.836-1.818 2.826-3.87 2.826Zm-.09-8.1c-1.638 0-2.718 1.08-2.934 2.79h5.652c0-1.674-1.08-2.79-2.718-2.79Zm8.36 8.1c-1.854 0-2.952-1.044-2.952-2.574 0-1.602 1.224-2.61 3.258-2.772l2.88-.234v-.288c0-1.71-1.026-2.25-2.304-2.25-1.512 0-2.412.684-2.412 1.854h-1.134c0-1.764 1.44-2.898 3.582-2.898 2.016 0 3.492 1.008 3.492 3.312V118h-1.044l-.162-1.53c-.54 1.098-1.728 1.746-3.204 1.746Zm.288-1.008c1.836 0 2.898-1.278 2.898-3.168v-.468l-2.574.198c-1.638.144-2.304.864-2.304 1.836 0 1.062.792 1.602 1.98 1.602Zm11.168-8.028v1.116h-.684c-1.602 0-2.628 1.08-2.628 2.736V118H90.55v-8.712h1.17l.09 1.35c.342-.936 1.26-1.548 2.484-1.548.27 0 .504.018.81.09Zm3.801 9.036c-1.854 0-2.952-1.044-2.952-2.574 0-1.602 1.224-2.61 3.258-2.772l2.88-.234v-.288c0-1.71-1.026-2.25-2.304-2.25-1.512 0-2.412.684-2.412 1.854h-1.134c0-1.764 1.44-2.898 3.582-2.898 2.016 0 3.492 1.008 3.492 3.312V118h-1.044l-.162-1.53c-.54 1.098-1.728 1.746-3.204 1.746Zm.288-1.008c1.836 0 2.898-1.278 2.898-3.168v-.468l-2.574.198c-1.638.144-2.304.864-2.304 1.836 0 1.062.792 1.602 1.98 1.602Zm7.857.792h-1.242v-8.712h1.08l.18 1.512c.576-1.116 1.728-1.746 2.988-1.746 2.394 0 3.384 1.422 3.384 3.618V118h-1.242v-5.058c0-2.034-.918-2.754-2.358-2.754-1.782 0-2.79 1.296-2.79 3.258V118Zm8.253-4.338c0-2.736 1.674-4.608 4.212-4.608 2.016 0 3.492 1.17 3.834 2.97h-1.242c-.324-1.206-1.368-1.872-2.574-1.872-1.764 0-3.006 1.35-3.006 3.492 0 2.07 1.152 3.456 2.916 3.456 1.296 0 2.34-.72 2.682-1.836h1.26c-.414 1.782-1.962 2.952-3.942 2.952-2.466 0-4.14-1.818-4.14-4.554Zm13.618 4.554c-2.556 0-4.266-1.836-4.266-4.572 0-2.718 1.692-4.59 4.176-4.59 2.358 0 3.96 1.674 3.96 4.14v.612h-6.93c.09 2.124 1.206 3.348 3.078 3.348 1.422 0 2.34-.612 2.664-1.764h1.188c-.468 1.836-1.818 2.826-3.87 2.826Zm-.09-8.1c-1.638 0-2.718 1.08-2.934 2.79h5.652c0-1.674-1.08-2.79-2.718-2.79Zm7.597 7.272c0 1.116-.864 2.088-1.98 2.25v-.666c.648-.108 1.116-.576 1.116-1.08a.807.807 0 0 1-.468.126c-.504 0-.936-.36-.936-.972 0-.63.432-1.08 1.062-1.08.648 0 1.206.522 1.206 1.422Zm284.883.612h-1.242v-8.712h1.08l.144 1.242c.432-.918 1.404-1.476 2.628-1.476 1.368 0 2.394.72 2.808 1.854.396-1.134 1.458-1.854 2.862-1.854 1.89 0 3.132 1.224 3.132 3.24V118h-1.206v-5.454c0-1.494-.828-2.376-2.16-2.376-1.458 0-2.322 1.098-2.322 2.448V118h-1.224v-5.472c0-1.476-.846-2.34-2.16-2.34-1.458 0-2.34 1.08-2.34 2.412v5.4Zm17.565.216c-2.556 0-4.266-1.836-4.266-4.572 0-2.718 1.692-4.59 4.176-4.59 2.358 0 3.96 1.674 3.96 4.14v.612h-6.93c.09 2.124 1.206 3.348 3.078 3.348 1.422 0 2.34-.612 2.664-1.764h1.188c-.468 1.836-1.818 2.826-3.87 2.826Zm-.09-8.1c-1.638 0-2.718 1.08-2.934 2.79h5.652c0-1.674-1.08-2.79-2.718-2.79Zm7.242 7.884h-1.242v-13.122h1.242V118Zm4.639 0h-1.224v-7.668h-1.746v-1.044h1.746v-2.754h1.224v2.754h1.746v1.044h-1.746V118Zm6.929.216c-2.556 0-4.266-1.836-4.266-4.572 0-2.718 1.692-4.59 4.176-4.59 2.358 0 3.96 1.674 3.96 4.14v.612h-6.93c.09 2.124 1.206 3.348 3.078 3.348 1.422 0 2.34-.612 2.664-1.764h1.188c-.468 1.836-1.818 2.826-3.87 2.826Zm-.09-8.1c-1.638 0-2.718 1.08-2.934 2.79h5.652c0-1.674-1.08-2.79-2.718-2.79Zm9.366 8.1c-2.538 0-4.032-1.944-4.032-4.554 0-2.628 1.494-4.608 4.086-4.608 1.44 0 2.592.63 3.204 1.89v-6.066h1.242V118h-1.08l-.126-1.782c-.612 1.35-1.836 1.998-3.294 1.998Zm.216-1.134c1.908 0 3.024-1.44 3.024-3.456 0-1.998-1.116-3.456-3.024-3.456-1.89 0-2.988 1.458-2.988 3.456 0 2.016 1.098 3.456 2.988 3.456Zm-426.386 24.31c0-2.376 1.53-4.338 4.086-4.338 1.512 0 2.664.702 3.222 1.98l.126-1.746h1.08v8.442c0 2.592-1.656 4.284-4.212 4.284-2.232 0-3.798-1.26-4.14-3.366h1.242c.27 1.404 1.35 2.232 2.916 2.232 1.782 0 2.97-1.206 2.97-3.024v-2.07c-.594 1.224-1.8 1.944-3.294 1.944-2.484 0-3.996-1.962-3.996-4.338Zm1.242-.018c0 1.782 1.098 3.24 2.934 3.24 1.89 0 3.006-1.368 3.006-3.24 0-1.854-1.08-3.222-2.988-3.222-1.872 0-2.952 1.458-2.952 3.222ZM53.104 146h-1.242v-13.122h1.242V146Zm5.143.216c-1.854 0-2.952-1.044-2.952-2.574 0-1.602 1.224-2.61 3.258-2.772l2.88-.234v-.288c0-1.71-1.026-2.25-2.304-2.25-1.512 0-2.412.684-2.412 1.854h-1.134c0-1.764 1.44-2.898 3.582-2.898 2.016 0 3.492 1.008 3.492 3.312V146h-1.044l-.162-1.53c-.54 1.098-1.728 1.746-3.204 1.746Zm.288-1.008c1.836 0 2.898-1.278 2.898-3.168v-.468l-2.574.198c-1.638.144-2.304.864-2.304 1.836 0 1.062.792 1.602 1.98 1.602Zm5.877-1.656H65.6c0 1.008.756 1.638 1.98 1.638 1.35 0 2.142-.576 2.142-1.512 0-.72-.36-1.134-1.386-1.386l-1.495-.378c-1.511-.378-2.25-1.17-2.25-2.358 0-1.53 1.279-2.502 3.15-2.502 1.837 0 3.025 1.008 3.079 2.628h-1.206c-.037-1.008-.739-1.602-1.909-1.602-1.224 0-1.907.522-1.907 1.458 0 .666.468 1.134 1.421 1.368l1.495.378c1.511.378 2.195 1.08 2.195 2.34 0 1.566-1.332 2.592-3.312 2.592-1.962 0-3.185-1.044-3.185-2.664Zm7.804 0h1.188c0 1.008.756 1.638 1.98 1.638 1.35 0 2.142-.576 2.142-1.512 0-.72-.36-1.134-1.386-1.386l-1.494-.378c-1.512-.378-2.25-1.17-2.25-2.358 0-1.53 1.278-2.502 3.15-2.502 1.836 0 3.024 1.008 3.078 2.628h-1.206c-.036-1.008-.738-1.602-1.908-1.602-1.224 0-1.908.522-1.908 1.458 0 .666.468 1.134 1.422 1.368l1.494.378c1.512.378 2.196 1.08 2.196 2.34 0 1.566-1.332 2.592-3.312 2.592-1.962 0-3.186-1.044-3.186-2.664Zm12.923-1.908c0-2.664 1.872-4.59 4.428-4.59s4.428 1.926 4.428 4.59c0 2.646-1.872 4.572-4.428 4.572s-4.428-1.926-4.428-4.572Zm1.26-.018c0 2.052 1.296 3.474 3.168 3.474 1.854 0 3.168-1.422 3.168-3.474 0-2.016-1.314-3.456-3.168-3.456-1.872 0-3.168 1.44-3.168 3.456Zm14.137-4.446v1.116h-.684c-1.603 0-2.629 1.08-2.629 2.736V146h-1.242v-8.712h1.17l.09 1.35c.343-.936 1.26-1.548 2.484-1.548.27 0 .505.018.811.09Zm7.939 8.82h-1.242v-13.122h1.242V146Zm3.253-11.106a.922.922 0 0 1-.918-.918c0-.504.414-.936.918-.936s.936.432.936.936-.432.918-.936.918ZM111.116 146v-8.712h1.242V146h-1.242Zm3.22-4.392c0-2.628 1.512-4.554 4.032-4.554 1.458 0 2.664.648 3.294 1.998l.126-1.764h1.08v12.51h-1.242v-5.472c-.612 1.26-1.782 1.89-3.258 1.89-2.574 0-4.032-1.98-4.032-4.608Zm1.26.036c0 1.998 1.098 3.456 2.988 3.456 1.908 0 3.024-1.458 3.024-3.456 0-2.016-1.116-3.456-3.024-3.456-1.89 0-2.988 1.44-2.988 3.456Zm15.984-4.356h1.242V146h-1.08l-.162-1.476c-.486 1.008-1.692 1.692-3.06 1.692-2.052 0-3.168-1.404-3.168-3.528v-5.418h1.26v5.022c0 2.07.918 2.808 2.304 2.808 1.674 0 2.664-1.116 2.664-3.186v-4.626Zm4.441-2.394a.922.922 0 0 1-.918-.918c0-.504.414-.936.918-.936s.936.432.936.936-.432.918-.936.918ZM135.409 146v-8.712h1.242V146h-1.242Zm7.252.216c-2.538 0-4.032-1.944-4.032-4.554 0-2.628 1.494-4.608 4.086-4.608 1.44 0 2.592.63 3.204 1.89v-6.066h1.242V146h-1.08l-.126-1.782c-.612 1.35-1.836 1.998-3.294 1.998Zm.216-1.134c1.908 0 3.024-1.44 3.024-3.456 0-1.998-1.116-3.456-3.024-3.456-1.89 0-2.988 1.458-2.988 3.456 0 2.016 1.098 3.456 2.988 3.456Zm13.11.918h-1.242v-8.712h1.08l.144 1.242c.432-.918 1.404-1.476 2.628-1.476 1.368 0 2.394.72 2.808 1.854.396-1.134 1.458-1.854 2.862-1.854 1.89 0 3.132 1.224 3.132 3.24V146h-1.206v-5.454c0-1.494-.828-2.376-2.16-2.376-1.458 0-2.322 1.098-2.322 2.448V146h-1.224v-5.472c0-1.476-.846-2.34-2.16-2.34-1.458 0-2.34 1.08-2.34 2.412v5.4Zm17.565.216c-2.556 0-4.266-1.836-4.266-4.572 0-2.718 1.692-4.59 4.176-4.59 2.358 0 3.96 1.674 3.96 4.14v.612h-6.93c.09 2.124 1.206 3.348 3.078 3.348 1.422 0 2.34-.612 2.664-1.764h1.188c-.468 1.836-1.818 2.826-3.87 2.826Zm-.09-8.1c-1.638 0-2.718 1.08-2.934 2.79h5.652c0-1.674-1.08-2.79-2.718-2.79Zm7.855 7.884h-1.224v-7.668h-1.746v-1.044h1.746v-2.754h1.224v2.754h1.746v1.044h-1.746V146Zm5.725.216c-1.854 0-2.952-1.044-2.952-2.574 0-1.602 1.224-2.61 3.258-2.772l2.88-.234v-.288c0-1.71-1.026-2.25-2.304-2.25-1.512 0-2.412.684-2.412 1.854h-1.134c0-1.764 1.44-2.898 3.582-2.898 2.016 0 3.492 1.008 3.492 3.312V146h-1.044l-.162-1.53c-.54 1.098-1.728 1.746-3.204 1.746Zm.288-1.008c1.836 0 2.898-1.278 2.898-3.168v-.468l-2.574.198c-1.638.144-2.304.864-2.304 1.836 0 1.062.792 1.602 1.98 1.602Zm7.91.792h-1.242v-13.122h1.242V146Zm3.704.198c-.612 0-1.134-.504-1.134-1.098 0-.612.522-1.134 1.134-1.134.612 0 1.134.522 1.134 1.134 0 .594-.522 1.098-1.134 1.098Z"/><path fill="#DB3BFB" d="M148.903 109.126v1.548h-.756c-1.602 0-2.592.972-2.592 2.664V118h-1.692v-8.784h1.584l.108 1.332c.36-.918 1.242-1.53 2.448-1.53.306 0 .558.036.9.108Zm5.068 9.09c-2.592 0-4.374-1.872-4.374-4.608 0-2.754 1.746-4.662 4.302-4.662 2.502 0 4.14 1.728 4.14 4.338v.63l-6.804.018c.126 1.854 1.098 2.88 2.772 2.88 1.314 0 2.178-.54 2.466-1.548h1.584c-.432 1.89-1.908 2.952-4.086 2.952Zm-.072-7.848c-1.476 0-2.412.882-2.628 2.43h5.076c0-1.458-.954-2.43-2.448-2.43Zm7.722 7.632h-1.692v-8.802h1.512l.162 1.152c.45-.828 1.386-1.404 2.628-1.404 1.368 0 2.34.684 2.79 1.782.414-1.098 1.476-1.782 2.844-1.782 2.016 0 3.24 1.26 3.24 3.294V118h-1.656v-5.346c0-1.386-.774-2.178-1.962-2.178-1.278 0-2.124.9-2.124 2.304V118h-1.674v-5.364c0-1.386-.756-2.142-1.944-2.142-1.278 0-2.124.882-2.124 2.286V118Zm14.658-10.89a1.122 1.122 0 0 1-1.116-1.116c0-.63.504-1.116 1.116-1.116a1.11 1.11 0 0 1 1.116 1.116c0 .612-.504 1.116-1.116 1.116Zm-.828 10.89v-8.802h1.692V118h-1.692Zm5.84 0h-1.692v-8.802h1.53l.18 1.35c.558-1.008 1.674-1.602 2.916-1.602 2.322 0 3.384 1.422 3.384 3.672V118h-1.692v-5.004c0-1.782-.828-2.502-2.124-2.502-1.584 0-2.502 1.134-2.502 2.844V118Zm9.49-10.89a1.122 1.122 0 0 1-1.116-1.116c0-.63.504-1.116 1.116-1.116a1.11 1.11 0 0 1 1.116 1.116c0 .612-.504 1.116-1.116 1.116Zm-.828 10.89v-8.802h1.692V118h-1.692Zm3.428-2.556h1.62c0 .9.684 1.44 1.8 1.44 1.188 0 1.872-.486 1.872-1.296 0-.594-.288-.954-1.206-1.188l-1.548-.36c-1.566-.378-2.304-1.152-2.304-2.448 0-1.62 1.368-2.646 3.312-2.646 1.926 0 3.186 1.08 3.222 2.754h-1.62c-.036-.882-.63-1.44-1.656-1.44-1.062 0-1.656.468-1.656 1.278 0 .594.432.99 1.296 1.206l1.548.378c1.494.36 2.232 1.044 2.232 2.358 0 1.674-1.44 2.736-3.528 2.736-2.07 0-3.384-1.098-3.384-2.772Zm8.212-1.836c0-2.754 1.746-4.662 4.32-4.662 2.214 0 3.762 1.26 4.068 3.222h-1.692c-.288-1.116-1.188-1.71-2.322-1.71-1.602 0-2.7 1.224-2.7 3.132 0 1.89 1.026 3.114 2.628 3.114 1.206 0 2.106-.63 2.412-1.674h1.692c-.342 1.908-1.98 3.186-4.104 3.186-2.592 0-4.302-1.836-4.302-4.608Zm13.99 4.608c-2.592 0-4.374-1.872-4.374-4.608 0-2.754 1.746-4.662 4.302-4.662 2.502 0 4.14 1.728 4.14 4.338v.63l-6.804.018c.126 1.854 1.098 2.88 2.772 2.88 1.314 0 2.178-.54 2.466-1.548h1.584c-.432 1.89-1.908 2.952-4.086 2.952Zm-.072-7.848c-1.476 0-2.412.882-2.628 2.43h5.076c0-1.458-.954-2.43-2.448-2.43Zm7.721 7.632h-1.692v-8.802h1.53l.18 1.35c.558-1.008 1.674-1.602 2.916-1.602 2.322 0 3.384 1.422 3.384 3.672V118h-1.692v-5.004c0-1.782-.828-2.502-2.124-2.502-1.584 0-2.502 1.134-2.502 2.844V118Zm11.146 0h-1.692v-7.38h-1.728v-1.422h1.728v-2.754h1.692v2.754h1.728v1.422h-1.728V118Zm7.592-4.41c0-2.718 1.944-4.626 4.59-4.626 2.628 0 4.572 1.908 4.572 4.626 0 2.718-1.944 4.626-4.572 4.626-2.646 0-4.59-1.908-4.59-4.626Zm1.71 0c0 1.836 1.17 3.114 2.88 3.114 1.692 0 2.88-1.278 2.88-3.114 0-1.836-1.188-3.114-2.88-3.114-1.71 0-2.88 1.278-2.88 3.114Zm8.337-4.392h1.296v-1.404c0-2.16 1.188-3.042 2.79-3.042.324 0 .702.018 1.044.072v1.458h-.756c-1.098 0-1.386.558-1.386 1.512v1.404h2.088v1.422h-2.088V118h-1.692v-7.38h-1.296v-1.422Zm14.144 9.018c-1.89 0-3.006-1.062-3.006-2.664 0-1.62 1.206-2.628 3.276-2.79l2.772-.216v-.252c0-1.476-.882-1.998-2.07-1.998-1.422 0-2.232.63-2.232 1.692h-1.476c0-1.836 1.512-3.042 3.78-3.042 2.178 0 3.654 1.152 3.654 3.528V118h-1.44l-.18-1.422c-.45 1.008-1.656 1.638-3.078 1.638Zm.486-1.314c1.602 0 2.574-1.044 2.574-2.7v-.468l-2.25.18c-1.494.144-2.106.72-2.106 1.584 0 .936.684 1.404 1.782 1.404Zm11.477 5.04v-12.744h1.53l.126 1.584c.594-1.206 1.782-1.836 3.186-1.836 2.52 0 4.086 1.89 4.086 4.59 0 2.682-1.476 4.698-4.086 4.698-1.404 0-2.574-.594-3.15-1.674v5.382h-1.692Zm1.71-8.334c0 1.8 1.044 3.096 2.772 3.096 1.728 0 2.754-1.296 2.754-3.096 0-1.818-1.026-3.114-2.754-3.114s-2.772 1.278-2.772 3.114Zm9.911-6.498a1.122 1.122 0 0 1-1.116-1.116c0-.63.504-1.116 1.116-1.116a1.11 1.11 0 0 1 1.116 1.116c0 .612-.504 1.116-1.116 1.116Zm-.828 10.89v-8.802h1.692V118h-1.692Zm7.947.216c-2.592 0-4.374-1.872-4.374-4.608 0-2.754 1.746-4.662 4.302-4.662 2.502 0 4.14 1.728 4.14 4.338v.63l-6.804.018c.126 1.854 1.098 2.88 2.772 2.88 1.314 0 2.178-.54 2.466-1.548h1.584c-.432 1.89-1.908 2.952-4.086 2.952Zm-.072-7.848c-1.476 0-2.412.882-2.628 2.43h5.076c0-1.458-.954-2.43-2.448-2.43Zm5.454 3.24c0-2.754 1.746-4.662 4.32-4.662 2.214 0 3.762 1.26 4.068 3.222h-1.692c-.288-1.116-1.188-1.71-2.322-1.71-1.602 0-2.7 1.224-2.7 3.132 0 1.89 1.026 3.114 2.628 3.114 1.206 0 2.106-.63 2.412-1.674h1.692c-.342 1.908-1.98 3.186-4.104 3.186-2.592 0-4.302-1.836-4.302-4.608Zm13.989 4.608c-2.592 0-4.374-1.872-4.374-4.608 0-2.754 1.746-4.662 4.302-4.662 2.502 0 4.14 1.728 4.14 4.338v.63l-6.804.018c.126 1.854 1.098 2.88 2.772 2.88 1.314 0 2.178-.54 2.466-1.548h1.584c-.432 1.89-1.908 2.952-4.086 2.952Zm-.072-7.848c-1.476 0-2.412.882-2.628 2.43h5.076c0-1.458-.954-2.43-2.448-2.43Zm10.376 3.222c0-2.718 1.944-4.626 4.59-4.626 2.628 0 4.572 1.908 4.572 4.626 0 2.718-1.944 4.626-4.572 4.626-2.646 0-4.59-1.908-4.59-4.626Zm1.71 0c0 1.836 1.17 3.114 2.88 3.114 1.692 0 2.88-1.278 2.88-3.114 0-1.836-1.188-3.114-2.88-3.114-1.71 0-2.88 1.278-2.88 3.114Zm8.336-4.392h1.296v-1.404c0-2.16 1.188-3.042 2.79-3.042.324 0 .702.018 1.044.072v1.458h-.756c-1.098 0-1.386.558-1.386 1.512v1.404h2.088v1.422h-2.088V118h-1.692v-7.38h-1.296v-1.422Zm10.995 4.41c0-2.754 1.746-4.662 4.32-4.662 2.214 0 3.762 1.26 4.068 3.222h-1.692c-.288-1.116-1.188-1.71-2.322-1.71-1.602 0-2.7 1.224-2.7 3.132 0 1.89 1.026 3.114 2.628 3.114 1.206 0 2.106-.63 2.412-1.674h1.692c-.342 1.908-1.98 3.186-4.104 3.186-2.592 0-4.302-1.836-4.302-4.608Zm9.615-.018c0-2.718 1.944-4.626 4.59-4.626 2.628 0 4.572 1.908 4.572 4.626 0 2.718-1.944 4.626-4.572 4.626-2.646 0-4.59-1.908-4.59-4.626Zm1.71 0c0 1.836 1.17 3.114 2.88 3.114 1.692 0 2.88-1.278 2.88-3.114 0-1.836-1.188-3.114-2.88-3.114-1.71 0-2.88 1.278-2.88 3.114Zm11.053 4.41h-1.692v-13.248h1.692V118Zm1.915-4.41c0-2.718 1.944-4.626 4.59-4.626 2.628 0 4.572 1.908 4.572 4.626 0 2.718-1.944 4.626-4.572 4.626-2.646 0-4.59-1.908-4.59-4.626Zm1.71 0c0 1.836 1.17 3.114 2.88 3.114 1.692 0 2.88-1.278 2.88-3.114 0-1.836-1.188-3.114-2.88-3.114-1.71 0-2.88 1.278-2.88 3.114Zm14.365-4.464v1.548h-.756c-1.602 0-2.592.972-2.592 2.664V118h-1.692v-8.784h1.584l.108 1.332c.36-.918 1.242-1.53 2.448-1.53.306 0 .558.036.9.108Zm1.002.072h1.296v-1.404c0-2.16 1.188-3.042 2.79-3.042.324 0 .702.018 1.044.072v1.458h-.756c-1.098 0-1.386.558-1.386 1.512v1.404h2.088v1.422h-2.088V118h-1.692v-7.38h-1.296v-1.422Zm12.733 0h1.674V118h-1.512l-.18-1.332c-.504.918-1.674 1.548-2.97 1.548-2.052 0-3.204-1.386-3.204-3.546v-5.472h1.692v4.914c0 1.89.81 2.61 2.106 2.61 1.548 0 2.394-.99 2.394-2.88v-4.644ZM407.54 118h-1.692v-13.248h1.692V118Zm5.029-.702a2.565 2.565 0 0 1-2.25 2.538v-.756c.738-.126 1.26-.612 1.26-1.17-.126.072-.27.108-.486.108-.594 0-1.098-.432-1.098-1.098 0-.72.486-1.242 1.206-1.242.756 0 1.368.63 1.368 1.62Z"/><rect width="48" height="21" x="34" y="182" fill="#C7DBFF" rx="4"/><path fill="#0D4DBC" d="M44.548 197.132c-2.4 0-4.032-1.788-4.032-4.428 0-2.64 1.656-4.44 4.08-4.44 1.848 0 3.3 1.116 3.648 2.82h-.924c-.36-1.236-1.416-1.992-2.76-1.992-1.884 0-3.144 1.44-3.144 3.612 0 2.16 1.26 3.6 3.144 3.6 1.356 0 2.436-.732 2.808-1.884h.924c-.396 1.62-1.896 2.712-3.744 2.712Zm6.609.012c-1.236 0-1.968-.696-1.968-1.716 0-1.068.816-1.74 2.172-1.848l1.92-.156v-.192c0-1.14-.684-1.5-1.536-1.5-1.008 0-1.608.456-1.608 1.236h-.756c0-1.176.96-1.932 2.388-1.932 1.344 0 2.328.672 2.328 2.208V197h-.696l-.108-1.02c-.36.732-1.152 1.164-2.136 1.164Zm.192-.672c1.224 0 1.932-.852 1.932-2.112v-.312l-1.716.132c-1.092.096-1.536.576-1.536 1.224 0 .708.528 1.068 1.32 1.068Zm3.918-1.104h.791c0 .672.505 1.092 1.32 1.092.9 0 1.428-.384 1.428-1.008 0-.48-.24-.756-.923-.924l-.997-.252c-1.008-.252-1.5-.78-1.5-1.572 0-1.02.852-1.668 2.1-1.668 1.225 0 2.017.672 2.053 1.752h-.805c-.023-.672-.492-1.068-1.272-1.068-.816 0-1.272.348-1.272.972 0 .444.313.756.949.912l.995.252c1.008.252 1.465.72 1.465 1.56 0 1.044-.888 1.728-2.208 1.728-1.308 0-2.124-.696-2.124-1.776Zm9.775-4.176h.828V197h-.72l-.108-.984c-.324.672-1.128 1.128-2.04 1.128-1.368 0-2.112-.936-2.112-2.352v-3.612h.84v3.348c0 1.38.612 1.872 1.536 1.872 1.116 0 1.776-.744 1.776-2.124v-3.084Zm4.22 5.952c-1.236 0-1.968-.696-1.968-1.716 0-1.068.817-1.74 2.172-1.848l1.92-.156v-.192c0-1.14-.683-1.5-1.535-1.5-1.008 0-1.608.456-1.608 1.236h-.756c0-1.176.96-1.932 2.388-1.932 1.344 0 2.328.672 2.328 2.208V197h-.697l-.108-1.02c-.36.732-1.151 1.164-2.135 1.164Zm.192-.672c1.225 0 1.933-.852 1.933-2.112v-.312l-1.716.132c-1.093.096-1.537.576-1.537 1.224 0 .708.528 1.068 1.32 1.068Zm5.274.528H73.9v-8.748h.828V197Z"/><rect width="63" height="21" x="88" y="182" fill="#FFD6D6" rx="4"/><path fill="#B81010" d="M95.896 197h-.852v-8.592h.852l3.132 7.572 3.132-7.572h.864V197h-.852v-4.08c0-1.5.024-2.16.072-2.748L99.448 197h-.828l-2.796-6.792c.048.324.072 1.272.072 2.58V197Zm8.626-2.904c0-1.776 1.248-3.06 2.952-3.06s2.952 1.284 2.952 3.06c0 1.764-1.248 3.048-2.952 3.048s-2.952-1.284-2.952-3.048Zm.84-.012c0 1.368.864 2.316 2.112 2.316 1.236 0 2.112-.948 2.112-2.316 0-1.344-.876-2.304-2.112-2.304-1.248 0-2.112.96-2.112 2.304Zm8.669 3.06c-1.692 0-2.688-1.296-2.688-3.036 0-1.752.996-3.072 2.724-3.072.96 0 1.728.42 2.136 1.26v-4.044h.828V197h-.72l-.084-1.188c-.408.9-1.224 1.332-2.196 1.332Zm.144-.756c1.272 0 2.016-.96 2.016-2.304 0-1.332-.744-2.304-2.016-2.304-1.26 0-1.992.972-1.992 2.304 0 1.344.732 2.304 1.992 2.304Zm7.02.756c-1.704 0-2.844-1.224-2.844-3.048 0-1.812 1.128-3.06 2.784-3.06 1.572 0 2.64 1.116 2.64 2.76v.408h-4.62c.06 1.416.804 2.232 2.052 2.232.948 0 1.56-.408 1.776-1.176h.792c-.312 1.224-1.212 1.884-2.58 1.884Zm-.06-5.4c-1.092 0-1.812.72-1.956 1.86h3.768c0-1.116-.72-1.86-1.812-1.86Zm4.827 5.256h-.828v-8.748h.828V197Zm7.634 0-3.288-8.592h.924l2.292 5.976c.18.468.348.936.54 1.536.18-.624.396-1.224.528-1.548l2.28-5.964h.888L134.496 197h-.9Zm7.315-4.608h-.684v-.6l2.652-2.616h-4.116v-.768h5.208v.696l-2.568 2.556c1.608.084 2.76 1.104 2.76 2.664 0 1.704-1.248 2.82-2.988 2.82-1.692 0-2.832-1.044-2.832-2.76h.852c0 1.236.768 1.98 1.98 1.98 1.284 0 2.112-.816 2.112-2.064 0-1.176-.84-1.908-2.376-1.908Z"/><path fill="#fff" d="M301.25 119.25v-.75c0-.199.079-.39.22-.53a.747.747 0 0 1 1.06 0c.141.14.22.331.22.53v.75c0 .199-.079.39-.22.53a.747.747 0 0 1-1.06 0 .747.747 0 0 1-.22-.53Zm-6.75 7.5h.75c.199 0 .39-.079.53-.22a.747.747 0 0 0 0-1.06.747.747 0 0 0-.53-.22h-.75a.747.747 0 0 0-.53.22.747.747 0 0 0 0 1.06c.14.141.331.22.53.22Zm10.164-6.079a.75.75 0 0 0 1.007-.335l.75-1.5a.75.75 0 0 0-1.341-.672l-.75 1.5a.752.752 0 0 0 .334 1.007Zm-9 7.659-1.5.75a.754.754 0 0 0-.376.433.75.75 0 0 0 1.048.908l1.5-.75a.76.76 0 0 0 .376-.434.75.75 0 0 0-1.048-.907Zm17.896 5.92a1.5 1.5 0 0 1 0 2.122l-1.188 1.188c-.14.14-.305.25-.487.325a1.49 1.49 0 0 1-1.148 0 1.48 1.48 0 0 1-.487-.325l-4.809-4.81-1.66 4.321c0 .009-.007.02-.012.03a1.49 1.49 0 0 1-1.369.899h-.074a1.486 1.486 0 0 1-1.351-1.031l-4.9-15.008a1.5 1.5 0 0 1 1.886-1.886l15.008 4.9a1.498 1.498 0 0 1 .8 2.211c-.159.257-.392.46-.668.583l-.03.012-4.321 1.659 4.81 4.81Z"/><path fill="#000" d="M301.25 119.25v-.75c0-.199.079-.39.22-.53a.747.747 0 0 1 1.06 0c.141.14.22.331.22.53v.75c0 .199-.079.39-.22.53a.747.747 0 0 1-1.06 0 .747.747 0 0 1-.22-.53Zm-6.75 7.5h.75c.199 0 .39-.079.53-.22a.747.747 0 0 0 0-1.06.747.747 0 0 0-.53-.22h-.75a.747.747 0 0 0-.53.22.747.747 0 0 0 0 1.06c.14.141.331.22.53.22Zm10.164-6.079a.75.75 0 0 0 1.007-.335l.75-1.5a.75.75 0 0 0-1.341-.672l-.75 1.5a.752.752 0 0 0 .334 1.007Zm-9 7.659-1.5.75a.754.754 0 0 0-.376.433.75.75 0 0 0 1.048.908l1.5-.75a.76.76 0 0 0 .376-.434.75.75 0 0 0-1.048-.907Zm17.896 5.92a1.5 1.5 0 0 1 0 2.122l-1.188 1.188c-.14.14-.305.25-.487.325a1.49 1.49 0 0 1-1.148 0 1.48 1.48 0 0 1-.487-.325l-4.809-4.81-1.66 4.321c0 .009-.007.02-.012.03a1.49 1.49 0 0 1-1.369.899h-.074a1.486 1.486 0 0 1-1.351-1.031l-4.9-15.008a1.5 1.5 0 0 1 1.886-1.886l15.008 4.9a1.498 1.498 0 0 1 .8 2.211c-.159.257-.392.46-.668.583l-.03.012-4.321 1.659 4.81 4.81Zm-1.06 1.06-4.81-4.81a1.5 1.5 0 0 1 .462-2.438l.03-.013 4.308-1.653-14.99-4.896 4.894 14.987 1.654-4.313c0-.01.008-.02.013-.031.097-.224.248-.421.439-.573a1.487 1.487 0 0 1 .938-.328c.397 0 .778.158 1.059.439l4.813 4.819 1.19-1.19Z"/></svg>