<svg xmlns:xlink="http://www.w3.org/1999/xlink"  xmlns="http://www.w3.org/2000/svg" width="1216" height="346" fill="none"><path fill="#fff" d="M46.182 340.351H0V0h46.182l174.362 263.148V0h46.182v340.351h-46.182L46.182 77.203V340.35ZM437.966 346c-67.86 0-114.513-48.958-114.513-120.512 0-72.024 45.711-121.923 112.628-121.923 65.504 0 108.387 45.191 108.387 113.45v16.476l-178.132.471c3.299 48.487 28.746 75.32 72.573 75.32 34.401 0 57.021-14.123 64.561-40.485h41.469C533.629 318.226 494.987 346 437.966 346Zm-1.885-205.246c-38.642 0-63.147 23.066-68.802 63.551h132.892c0-38.131-24.976-63.551-64.09-63.551Zm317.146-30.599h43.826v230.196h-39.585l-4.712-34.835C739.561 329.524 708.93 346 675 346c-53.722 0-83.882-36.248-83.882-92.737V110.155h44.297v128.514c0 49.429 21.206 68.259 55.136 68.259 40.528 0 62.676-25.891 62.676-75.32V110.155Zm240.046-1.883v40.484H973.48c-41.941 0-67.859 25.421-67.859 69.671v121.924h-44.298V110.626h41.47l2.828 34.835c9.425-24.008 32.516-40.013 64.089-40.013 8.012 0 14.609.941 23.563 2.824ZM1093 346c-49.48 0-78.69-27.774-78.69-69.671 0-42.367 31.57-68.729 85.76-72.966l72.58-5.649v-6.59c0-38.602-23.1-52.253-54.2-52.253-37.23 0-58.43 16.476-58.43 44.25h-38.65c0-48.016 39.59-79.556 98.97-79.556 57.02 0 95.66 30.128 95.66 92.266v144.52h-37.7l-4.71-37.189C1161.81 329.524 1130.23 346 1093 346Zm12.73-34.365c41.94 0 67.39-27.303 67.39-70.612v-12.239l-58.91 4.707c-39.11 3.766-55.14 18.83-55.14 41.426 0 24.479 17.91 36.718 46.66 36.718Z"/></svg>