<svg xmlns:xlink="http://www.w3.org/1999/xlink" xmlns="http://www.w3.org/2000/svg" style="width:100%;height:100%" viewBox="0 0 64 65" preserveAspectRatio="none" width="64" height="65"><defs><svg width="64" height="65" viewBox="0 0 64 65" fill="none" id="svg-1330177057_2149">
<g clip-path="url(#svg-1330177057_2149_clip0_748_30953)" fill="none">
<path d="M12.9932 32.8417C12.517 30.0767 14.2857 28.593 16.9388 28.5931H20.068V33.3812L20.0681 33.8711C20.0699 39.8659 20.0714 45.0078 17.6871 48.4877C13.4014 49.0946 10 51.6573 10 56.2432C10 60.8965 13.7415 64.3359 18.3673 64.3359H18.5714V62.5825C16.8027 62.5151 15.4422 60.8291 15.4422 59.278C15.4422 57.7269 17.0068 56.7827 18.7075 56.7827H20.6803C23.4694 56.7827 26.3946 55.7037 27.8912 54.3549C33.2653 49.6342 41.7687 38.3043 41.7687 38.3043L41.7687 28.7279H47.619L53.7566 22.4833V20.8374L41.7687 20.8375L41.7687 8.49611C44.6259 10.4518 47.9592 12.0704 51.7007 13.1494L60 4.98926L58.0952 3.57303L55.9864 5.52877C51.9728 4.24743 48.5714 2.56144 45.3742 0.335938L32.1769 11.8681L32.1769 45.9924C32.1769 47.6784 31.7687 48.8249 30.6803 49.4993C29.3754 49.3868 28.0469 49.2039 26.7045 49.0192L26.7044 49.0192L26.7043 49.0192C24.8277 48.7609 22.924 48.4989 21.0204 48.4202C24.8299 46.0599 28.8435 42.9576 28.8435 39.181L28.8435 16.8586C28.8435 11.0588 31.0884 8.15891 34.1497 5.86597C34.6687 5.54933 35.1408 5.20947 35.6074 4.87364C35.9358 4.63725 36.2614 4.40286 36.5986 4.17998C37.483 3.64048 38.3674 3.10095 39.2517 2.494L39.3878 0.673133C37.8231 1.68473 35.7143 2.42656 33.3333 2.42656C31.5306 2.42656 29.8639 2.00506 28.1973 1.58356C26.5306 1.16207 24.864 0.74057 23.0612 0.74057C17.0748 0.740569 13.0612 5.25901 11.3606 9.50769H12.9252C13.6055 7.75427 15.3061 6.40548 17.7551 6.40548C19.4134 6.40548 20.8191 6.90618 22.2319 7.40941C23.6591 7.91775 25.0935 8.42867 26.8027 8.42867C27.6871 8.42867 28.5034 8.29379 29.3197 8.09147C27.551 9.5077 25.7823 10.9914 24.1497 12.6099C23.9002 12.8395 23.6462 13.0622 23.3929 13.2841C21.7121 14.757 20.068 16.1978 20.068 19.4213V21.0398C19.7317 21.1016 19.3931 21.1588 19.0542 21.2161L19.0542 21.2161C17.5428 21.4715 16.0276 21.7276 14.6939 22.3886C11.2925 24.0072 9.45579 28.6605 11.7007 32.8417H12.9932Z" fill="black"></path>
</g>
<defs>
<clipPath id="svg-1330177057_2149_clip0_748_30953">
<rect width="64" height="64" fill="white" transform="translate(0 0.335938)"></rect>
</clipPath>
</defs>
</svg></defs><use href="#svg-1330177057_2149"></use></svg>