<svg xmlns:xlink="http://www.w3.org/1999/xlink"  xmlns="http://www.w3.org/2000/svg" xlink="http://www.w3.org/1999/xlink" viewBox="0 0 40 40" id="svg2877769089"><g id="ss2877769089_1"><path d="M 0 40 L 0 0 L 40 0 L 40 40 Z" fill="transparent"></path><g id="ss2877769089_3"><path d="M 20 22.2 C 21.215 22.2 22.2 21.215 22.2 20 C 22.2 18.785 21.215 17.8 20 17.8 C 18.785 17.8 17.8 18.785 17.8 20 C 17.8 21.215 18.785 22.2 20 22.2 Z M 20 40 C 8.954 40 0 31.046 0 20 C 0 8.954 8.954 0 20 0 C 31.046 0 40 8.954 40 20 C 40 31.046 31.046 40 20 40 Z M 2.4 20 C 2.4 27.186 6.707 33.366 12.879 36.1 C 9.92 32.458 8 26.603 8 20 C 8 13.397 9.92 7.542 12.879 3.9 C 6.707 6.634 2.4 12.814 2.4 20 Z M 29.6 20 C 29.6 14.837 28.339 10.28 26.427 7.093 C 24.486 3.858 22.139 2.4 20 2.4 C 17.861 2.4 15.514 3.858 13.573 7.093 C 11.66 10.28 10.4 14.837 10.4 20 C 10.4 25.163 11.66 29.72 13.573 32.907 C 15.514 36.142 17.861 37.6 20 37.6 C 22.139 37.6 24.486 36.142 26.427 32.907 C 28.339 29.72 29.6 25.163 29.6 20 Z M 27.121 3.9 C 30.08 7.542 32 13.397 32 20 C 32 26.603 30.08 32.458 27.121 36.1 C 33.293 33.366 37.6 27.186 37.6 20 C 37.6 12.814 33.293 6.634 27.121 3.9 Z" fill="var(--token-be079bad-eabd-4234-8a56-5579c7057187, rgb(0, 0, 0)) /* {&quot;name&quot;:&quot;Primary / Black&quot;} */"></path></g></g></svg>