<svg xmlns:xlink="http://www.w3.org/1999/xlink"  xmlns="http://www.w3.org/2000/svg" xlink="http://www.w3.org/1999/xlink" viewBox="0 0 91 23" id="svg3925629456"><path d="M 78.373 16.113 C 78.895 18.467 80.829 19.674 83.285 19.674 C 85.127 19.674 86.509 18.86 87.246 17.803 L 89.979 19.373 C 88.566 21.425 86.264 22.662 83.255 22.662 C 78.188 22.662 74.903 19.252 74.903 14.725 C 74.903 10.258 78.188 6.788 83.009 6.788 C 87.584 6.788 90.715 10.409 90.715 14.755 C 90.715 15.208 90.654 15.691 90.593 16.113 Z M 78.342 13.457 L 87.369 13.457 C 86.908 10.862 84.974 9.745 82.978 9.745 C 80.491 9.745 78.803 11.194 78.342 13.457 Z" fill="var(--token-be079bad-eabd-4234-8a56-5579c7057187, rgb(0, 0, 0)) /* {&quot;name&quot;:&quot;Primary / Black&quot;} */"></path><path d="M 68.597 22.27 L 68.597 0.239 L 71.913 0.239 L 71.913 22.27 Z" fill="var(--token-be079bad-eabd-4234-8a56-5579c7057187, rgb(0, 0, 0)) /* {&quot;name&quot;:&quot;Primary / Black&quot;} */"></path><path d="M 58.045 19.191 L 65.506 19.191 L 65.506 22.27 L 53.531 22.27 L 53.531 20.097 L 60.716 10.258 L 53.838 10.258 L 53.838 7.18 L 65.199 7.18 L 65.199 9.353 Z" fill="var(--token-be079bad-eabd-4234-8a56-5579c7057187, rgb(0, 0, 0)) /* {&quot;name&quot;:&quot;Primary / Black&quot;} */"></path><path d="M 43.832 19.191 L 51.293 19.191 L 51.293 22.27 L 39.319 22.27 L 39.319 20.097 L 46.504 10.258 L 39.626 10.258 L 39.626 7.18 L 50.986 7.18 L 50.986 9.353 Z" fill="var(--token-be079bad-eabd-4234-8a56-5579c7057187, rgb(0, 0, 0)) /* {&quot;name&quot;:&quot;Primary / Black&quot;} */"></path><path d="M 32.69 7.18 L 36.006 7.18 L 36.006 22.27 L 32.69 22.27 L 32.69 20.097 C 31.524 21.696 29.712 22.662 27.317 22.662 C 23.141 22.662 19.672 19.191 19.672 14.725 C 19.672 10.228 23.141 6.788 27.317 6.788 C 29.712 6.788 31.524 7.754 32.69 9.323 Z M 27.839 19.554 C 30.602 19.554 32.69 17.532 32.69 14.725 C 32.69 11.918 30.602 9.896 27.839 9.896 C 25.076 9.896 22.988 11.918 22.988 14.725 C 22.988 17.532 25.076 19.554 27.839 19.554 Z" fill="var(--token-be079bad-eabd-4234-8a56-5579c7057187, rgb(0, 0, 0)) /* {&quot;name&quot;:&quot;Primary / Black&quot;} */"></path><path d="M 13.35 1.144 L 16.666 1.144 L 16.666 22.27 L 13.35 22.27 L 13.35 20.097 C 12.184 21.696 10.372 22.662 7.977 22.662 C 3.801 22.662 0.332 19.192 0.332 14.725 C 0.332 10.228 3.801 6.788 7.977 6.788 C 10.372 6.788 12.184 7.754 13.35 9.323 Z M 8.499 19.554 C 11.262 19.554 13.35 17.532 13.35 14.725 C 13.35 11.918 11.262 9.896 8.499 9.896 C 5.736 9.896 3.648 11.918 3.648 14.725 C 3.648 17.532 5.736 19.554 8.499 19.554 Z" fill="var(--token-be079bad-eabd-4234-8a56-5579c7057187, rgb(0, 0, 0)) /* {&quot;name&quot;:&quot;Primary / Black&quot;} */"></path></svg>