<svg xmlns:xlink="http://www.w3.org/1999/xlink"  xmlns="http://www.w3.org/2000/svg" xlink="http://www.w3.org/1999/xlink" viewBox="0 0 81 21" id="svg34630674"><path d="M 76.606 0.957 L 80.452 0.957 L 71.878 20.868 L 68.061 20.868 L 70.681 14.772 L 65.07 0.957 L 69.115 0.957 L 71.251 7.024 L 72.59 10.984 L 74.043 7.11 Z" fill="rgb(0,0,0)"></path><path d="M 60.432 2.894 L 60.545 0.957 L 63.878 0.957 L 63.878 15 L 60.602 15 L 60.432 12.949 C 59.634 14.601 57.441 15.399 55.874 15.428 C 51.715 15.456 48.639 12.892 48.639 7.965 C 48.639 3.122 51.858 0.587 55.959 0.615 C 57.84 0.615 59.634 1.498 60.432 2.894 Z M 56.273 3.72 C 53.966 3.72 52.114 5.287 52.114 7.965 C 52.114 10.642 53.966 12.237 56.273 12.237 C 61.742 12.237 61.742 3.72 56.273 3.72 Z" fill="rgb(0,0,0)"></path><path d="M 39.296 11.981 C 41.66 11.981 43.284 10.186 43.284 7.993 C 43.284 5.799 41.803 4.005 39.296 4.005 C 36.789 4.005 35.308 5.799 35.308 7.993 C 35.308 10.186 36.932 11.981 39.296 11.981 Z M 34.995 20.868 L 31.52 20.868 L 31.52 0.957 L 34.767 0.957 L 34.995 2.894 C 36.077 1.327 37.957 0.644 39.552 0.644 C 43.882 0.644 46.759 3.862 46.759 7.993 C 46.759 12.094 44.167 15.342 39.666 15.342 C 38.185 15.342 35.992 14.886 34.995 13.348 Z" fill="var(--token-be079bad-eabd-4234-8a56-5579c7057187, rgb(0, 0, 0)) /* {&quot;name&quot;:&quot;Primary / Black&quot;} */"></path><path d="M 21.686 0.672 C 26.158 0.672 29.035 3.977 29.035 7.993 C 29.035 12.038 26.272 15.313 21.715 15.313 C 17.157 15.313 14.423 12.038 14.423 7.993 C 14.423 3.977 17.214 0.672 21.686 0.672 Z M 21.715 3.834 C 19.208 3.834 17.898 5.885 17.898 7.993 C 17.898 10.129 19.18 12.123 21.715 12.123 C 24.25 12.123 25.532 10.129 25.532 7.993 C 25.532 5.885 24.05 3.834 21.715 3.834 Z" fill="rgb(0,0,0)"></path><path d="M 10.853 10.927 L 13.188 13.205 C 11.565 14.8 9.856 15.427 7.776 15.427 C 3.703 15.427 0.313 12.977 0.313 7.993 C 0.313 3.008 3.703 0.558 7.776 0.558 C 9.77 0.558 11.308 1.128 12.847 2.637 L 10.653 4.945 C 9.827 4.204 8.802 3.834 7.833 3.834 C 5.497 3.834 3.788 5.543 3.788 7.993 C 3.788 10.67 5.611 12.094 7.776 12.094 C 8.887 12.094 9.998 11.781 10.853 10.927 Z" fill="rgb(0,0,0)"></path></svg>