<svg xmlns:xlink="http://www.w3.org/1999/xlink"  xmlns="http://www.w3.org/2000/svg" xlink="http://www.w3.org/1999/xlink" viewBox="0 0 98 19" id="svg2131891571"><path d="M 91.417 18.409 C 90.03 18.409 88.784 18.213 87.68 17.821 C 86.592 17.429 85.717 16.872 85.054 16.15 L 87.349 14.127 C 87.885 14.629 88.524 15.013 89.265 15.28 C 90.006 15.546 90.787 15.68 91.607 15.68 C 91.859 15.68 92.104 15.656 92.34 15.609 C 92.593 15.562 92.806 15.499 92.979 15.421 C 93.168 15.327 93.318 15.217 93.429 15.092 C 93.539 14.966 93.594 14.809 93.594 14.621 C 93.594 14.323 93.405 14.088 93.026 13.915 C 92.759 13.821 92.419 13.727 92.01 13.633 C 91.599 13.538 91.134 13.437 90.613 13.327 C 89.746 13.17 88.982 12.982 88.319 12.762 C 87.672 12.527 87.128 12.236 86.687 11.891 C 86.308 11.562 86.016 11.185 85.811 10.762 C 85.606 10.338 85.503 9.844 85.503 9.279 C 85.503 8.699 85.654 8.173 85.953 7.703 C 86.252 7.217 86.671 6.809 87.207 6.479 C 87.743 6.134 88.358 5.875 89.052 5.703 C 89.746 5.515 90.471 5.42 91.229 5.42 C 91.985 5.42 92.727 5.499 93.452 5.656 C 94.178 5.797 94.864 6.009 95.51 6.291 C 96.157 6.558 96.725 6.903 97.214 7.326 L 95.273 9.585 C 94.927 9.319 94.524 9.075 94.068 8.856 C 93.61 8.636 93.121 8.464 92.601 8.338 C 92.096 8.197 91.599 8.126 91.11 8.126 C 90.842 8.126 90.582 8.142 90.329 8.173 C 90.093 8.205 89.888 8.268 89.715 8.362 C 89.541 8.44 89.399 8.542 89.289 8.668 C 89.194 8.777 89.147 8.919 89.147 9.091 C 89.147 9.232 89.186 9.366 89.265 9.491 C 89.344 9.617 89.462 9.719 89.62 9.797 C 89.841 9.938 90.164 10.064 90.59 10.174 C 91.031 10.283 91.583 10.401 92.245 10.527 C 93.208 10.731 94.028 10.966 94.706 11.232 C 95.384 11.484 95.929 11.789 96.338 12.15 C 96.67 12.401 96.914 12.715 97.071 13.091 C 97.229 13.452 97.308 13.852 97.308 14.291 C 97.308 15.092 97.048 15.805 96.528 16.433 C 96.023 17.045 95.329 17.531 94.446 17.892 C 93.578 18.237 92.569 18.409 91.417 18.409 Z" fill="var(--token-be079bad-eabd-4234-8a56-5579c7057187, rgb(0, 0, 0)) /* {&quot;name&quot;:&quot;Primary / Black&quot;} */"></path><path d="M 75.189 18.433 C 74.18 18.433 73.305 18.213 72.564 17.774 C 71.838 17.335 71.278 16.699 70.884 15.868 C 70.49 15.021 70.292 14.009 70.292 12.832 L 70.292 5.679 L 74.078 5.679 L 74.078 12.221 C 74.078 12.864 74.164 13.405 74.338 13.844 C 74.527 14.283 74.819 14.621 75.213 14.856 C 75.607 15.076 76.088 15.185 76.656 15.185 C 77.066 15.185 77.445 15.123 77.792 14.997 C 78.139 14.856 78.446 14.668 78.714 14.432 C 78.982 14.181 79.187 13.899 79.329 13.585 C 79.487 13.256 79.566 12.887 79.566 12.479 L 79.566 5.679 L 83.351 5.679 L 83.351 18.174 L 79.803 18.174 L 79.637 15.609 L 80.323 15.327 C 80.15 15.876 79.818 16.385 79.329 16.856 C 78.84 17.327 78.241 17.711 77.531 18.009 C 76.838 18.291 76.057 18.433 75.189 18.433 Z" fill="var(--token-be079bad-eabd-4234-8a56-5579c7057187, rgb(0, 0, 0)) /* {&quot;name&quot;:&quot;Primary / Black&quot;} */"></path><path d="M 58.919 18.433 C 57.689 18.433 56.609 18.158 55.678 17.609 C 54.748 17.044 54.022 16.276 53.502 15.303 C 52.981 14.315 52.721 13.193 52.721 11.938 C 52.721 10.683 52.989 9.569 53.526 8.597 C 54.062 7.609 54.803 6.832 55.749 6.267 C 56.711 5.703 57.815 5.42 59.061 5.42 C 59.755 5.42 60.402 5.514 61.001 5.703 C 61.6 5.875 62.137 6.11 62.61 6.409 C 63.099 6.707 63.485 7.052 63.769 7.444 C 64.069 7.82 64.242 8.205 64.289 8.597 L 63.39 8.809 L 63.39 0.761 L 67.199 0.761 L 67.199 18.174 L 63.674 18.174 L 63.461 15.138 L 64.218 15.327 C 64.171 15.719 63.998 16.103 63.698 16.48 C 63.398 16.841 63.004 17.17 62.515 17.468 C 62.042 17.75 61.498 17.986 60.883 18.174 C 60.268 18.346 59.613 18.433 58.919 18.433 Z M 59.984 15.256 C 60.694 15.256 61.309 15.115 61.829 14.833 C 62.365 14.55 62.775 14.166 63.059 13.68 C 63.343 13.178 63.485 12.597 63.485 11.938 C 63.485 11.264 63.343 10.683 63.059 10.197 C 62.775 9.695 62.365 9.311 61.829 9.044 C 61.309 8.762 60.694 8.62 59.984 8.62 C 59.274 8.62 58.659 8.762 58.139 9.044 C 57.618 9.311 57.208 9.695 56.909 10.197 C 56.625 10.683 56.483 11.264 56.483 11.938 C 56.483 12.597 56.625 13.178 56.909 13.68 C 57.208 14.166 57.618 14.55 58.139 14.833 C 58.659 15.115 59.274 15.256 59.984 15.256 Z" fill="var(--token-be079bad-eabd-4234-8a56-5579c7057187, rgb(0, 0, 0)) /* {&quot;name&quot;:&quot;Primary / Black&quot;} */"></path><path d="M 44.554 18.409 C 43.087 18.409 41.786 18.127 40.65 17.562 C 39.515 16.998 38.624 16.229 37.977 15.256 C 37.33 14.284 37.007 13.17 37.007 11.915 C 37.007 10.66 37.33 9.546 37.977 8.574 C 38.624 7.601 39.515 6.832 40.65 6.267 C 41.786 5.703 43.087 5.42 44.554 5.42 C 46.005 5.42 47.29 5.703 48.41 6.267 C 49.545 6.832 50.436 7.601 51.083 8.574 C 51.729 9.546 52.053 10.66 52.053 11.915 C 52.053 13.17 51.729 14.284 51.083 15.256 C 50.436 16.229 49.545 16.998 48.41 17.562 C 47.29 18.127 46.005 18.409 44.554 18.409 Z M 44.554 15.162 C 45.232 15.162 45.847 15.021 46.399 14.739 C 46.967 14.456 47.408 14.072 47.724 13.586 C 48.055 13.099 48.213 12.542 48.197 11.915 C 48.213 11.287 48.055 10.723 47.724 10.221 C 47.408 9.719 46.967 9.334 46.399 9.068 C 45.847 8.785 45.232 8.644 44.554 8.644 C 43.86 8.644 43.221 8.785 42.637 9.068 C 42.07 9.35 41.628 9.734 41.313 10.221 C 40.997 10.707 40.84 11.272 40.84 11.915 C 40.84 12.542 40.997 13.099 41.313 13.586 C 41.628 14.072 42.07 14.456 42.637 14.739 C 43.221 15.021 43.86 15.162 44.554 15.162 Z" fill="var(--token-be079bad-eabd-4234-8a56-5579c7057187, rgb(0, 0, 0)) /* {&quot;name&quot;:&quot;Primary / Black&quot;} */"></path><path d="M 32.156 18.174 L 28.679 13.679 L 27.709 12.409 L 22.197 5.679 L 26.976 5.679 L 30.098 9.797 L 31.139 11.162 L 36.888 18.174 Z M 21.889 18.174 L 27.52 11.115 L 29.815 13.444 L 26.597 18.174 Z M 31.116 12.738 L 28.892 10.385 L 32.062 5.679 L 36.746 5.679 Z" fill="var(--token-be079bad-eabd-4234-8a56-5579c7057187, rgb(0, 0, 0)) /* {&quot;name&quot;:&quot;Primary / Black&quot;} */"></path><path d="M 18.228 18.433 C 17.455 18.433 16.864 18.252 16.454 17.891 C 16.06 17.515 15.862 16.997 15.862 16.338 C 15.862 15.742 16.067 15.24 16.477 14.832 C 16.903 14.424 17.487 14.221 18.228 14.221 C 19.001 14.221 19.592 14.409 20.002 14.785 C 20.412 15.162 20.617 15.679 20.617 16.338 C 20.617 16.919 20.405 17.413 19.979 17.821 C 19.569 18.229 18.985 18.433 18.228 18.433 Z" fill="var(--token-be079bad-eabd-4234-8a56-5579c7057187, rgb(0, 0, 0)) /* {&quot;name&quot;:&quot;Primary / Black&quot;} */"></path><path d="M 8.348 18.409 C 6.818 18.409 5.478 18.135 4.327 17.586 C 3.191 17.021 2.308 16.26 1.677 15.303 C 1.046 14.331 0.731 13.225 0.731 11.985 C 0.731 10.997 0.912 10.103 1.275 9.303 C 1.638 8.503 2.142 7.813 2.789 7.232 C 3.436 6.652 4.193 6.205 5.06 5.891 C 5.927 5.577 6.866 5.42 7.875 5.42 C 8.853 5.42 9.752 5.577 10.572 5.891 C 11.392 6.189 12.102 6.62 12.701 7.185 C 13.316 7.75 13.789 8.417 14.12 9.185 C 14.452 9.954 14.602 10.801 14.57 11.727 L 14.546 12.786 L 3.215 12.786 L 2.671 10.597 L 11.471 10.597 L 11.069 11.068 L 11.069 10.597 C 11.021 10.205 10.848 9.852 10.548 9.538 C 10.264 9.225 9.894 8.981 9.436 8.809 C 8.979 8.621 8.474 8.526 7.922 8.526 C 7.213 8.526 6.582 8.644 6.03 8.879 C 5.478 9.099 5.044 9.444 4.729 9.915 C 4.429 10.385 4.279 10.982 4.279 11.703 C 4.279 12.393 4.461 12.997 4.823 13.515 C 5.202 14.033 5.73 14.44 6.408 14.739 C 7.102 15.037 7.915 15.186 8.845 15.186 C 9.649 15.186 10.32 15.092 10.856 14.903 C 11.408 14.699 11.905 14.448 12.346 14.15 L 14.05 16.597 C 13.529 16.99 12.953 17.327 12.323 17.609 C 11.708 17.876 11.061 18.072 10.383 18.198 C 9.72 18.339 9.042 18.409 8.348 18.409 Z" fill="var(--token-be079bad-eabd-4234-8a56-5579c7057187, rgb(0, 0, 0)) /* {&quot;name&quot;:&quot;Primary / Black&quot;} */"></path></svg>