<svg xmlns:xlink="http://www.w3.org/1999/xlink"  xmlns="http://www.w3.org/2000/svg" xlink="http://www.w3.org/1999/xlink" viewBox="0 0 78 21" id="svg2378950959"><path d="M 70.014 5.672 C 74.486 5.672 77.363 8.977 77.363 12.993 C 77.363 17.038 74.6 20.314 70.042 20.314 C 65.485 20.314 62.75 17.038 62.75 12.993 C 62.75 8.977 65.542 5.672 70.014 5.672 Z M 70.042 8.834 C 67.536 8.834 66.225 10.885 66.225 12.993 C 66.225 15.129 67.507 17.123 70.042 17.123 C 72.577 17.123 73.859 15.129 73.859 12.993 C 73.859 10.885 72.378 8.834 70.042 8.834 Z" fill="var(--token-be079bad-eabd-4234-8a56-5579c7057187, rgb(0, 0, 0)) /* {&quot;name&quot;:&quot;Primary / Black&quot;} */"></path><path d="M 49.187 0.089 L 52.662 0.089 L 52.662 11.597 L 57.39 5.957 L 61.549 5.957 L 61.549 6.157 L 55.824 12.566 L 62.347 19.744 L 62.347 20 L 58.159 20 L 52.662 13.648 L 52.662 20 L 49.187 20 Z" fill="var(--token-be079bad-eabd-4234-8a56-5579c7057187, rgb(0, 0, 0)) /* {&quot;name&quot;:&quot;Primary / Black&quot;} */"></path><path d="M 42.57 18.205 C 42.57 15.528 46.615 15.528 46.615 18.205 C 46.615 20.854 42.57 20.854 42.57 18.205 Z M 42.57 9.945 C 42.57 7.267 46.615 7.267 46.615 9.945 C 46.615 12.594 42.57 12.594 42.57 9.945 Z" fill="var(--token-be079bad-eabd-4234-8a56-5579c7057187, rgb(0, 0, 0)) /* {&quot;name&quot;:&quot;Primary / Black&quot;} */"></path><path d="M 32.389 1.998 L 35.864 1.998 L 35.864 5.985 L 39.339 5.985 L 39.738 8.976 L 35.836 8.976 L 35.836 15.043 C 35.836 16.382 36.576 17.038 37.659 17.038 C 38.2 17.038 38.826 16.867 39.339 16.61 L 40.308 19.573 C 39.311 19.971 38.485 20.142 37.431 20.171 C 34.383 20.285 32.389 18.547 32.389 15.043 L 32.389 8.976 L 29.768 8.976 L 29.768 5.985 L 32.389 5.985 Z" fill="var(--token-be079bad-eabd-4234-8a56-5579c7057187, rgb(0, 0, 0)) /* {&quot;name&quot;:&quot;Primary / Black&quot;} */"></path><path d="M 28.814 14.218 L 17.847 14.218 C 18.075 15.955 19.584 17.209 22.034 17.209 C 23.316 17.209 24.997 16.724 25.794 15.898 L 28.016 18.091 C 26.535 19.63 24.113 20.37 21.977 20.37 C 17.135 20.37 14.258 17.379 14.258 12.879 C 14.258 8.606 17.163 5.53 21.721 5.53 C 26.421 5.53 29.355 8.435 28.814 14.218 Z M 17.904 11.341 L 25.481 11.341 C 25.253 9.518 23.829 8.606 21.835 8.606 C 19.955 8.606 18.417 9.518 17.904 11.341 Z" fill="var(--token-be079bad-eabd-4234-8a56-5579c7057187, rgb(0, 0, 0)) /* {&quot;name&quot;:&quot;Primary / Black&quot;} */"></path><path d="M 0.054 0.089 L 3.529 0.089 L 3.529 11.597 L 8.258 5.957 L 12.416 5.957 L 12.416 6.157 L 6.691 12.566 L 13.214 19.744 L 13.214 20 L 9.027 20 L 3.529 14 L 3.529 20 L 0.054 20 Z" fill="var(--token-be079bad-eabd-4234-8a56-5579c7057187, rgb(0, 0, 0)) /* {&quot;name&quot;:&quot;Primary / Black&quot;} */"></path></svg>