<svg xmlns:xlink="http://www.w3.org/1999/xlink"  xmlns="http://www.w3.org/2000/svg" xlink="http://www.w3.org/1999/xlink" viewBox="0 0 66.353 24" id="svg1005075626"><path d="M 17.114 4.157 C 16.624 4.157 16.199 3.985 15.84 3.641 C 15.48 3.281 15.301 2.847 15.301 2.339 C 15.301 1.848 15.48 1.43 15.84 1.086 C 16.199 0.726 16.624 0.545 17.114 0.545 C 17.62 0.545 18.045 0.726 18.388 1.086 C 18.731 1.43 18.902 1.848 18.902 2.339 C 18.902 2.847 18.731 3.281 18.388 3.641 C 18.045 3.985 17.62 4.157 17.114 4.157 Z" fill="var(--token-be079bad-eabd-4234-8a56-5579c7057187, rgb(0, 0, 0)) /* {&quot;name&quot;:&quot;Primary / Black&quot;} */"></path><path d="M 15.766 19.121 L 15.766 6.836 L 18.461 6.836 L 18.461 19.121 Z" fill="var(--token-be079bad-eabd-4234-8a56-5579c7057187, rgb(0, 0, 0)) /* {&quot;name&quot;:&quot;Primary / Black&quot;} */"></path><path d="M 0.544 18.946 L 0.544 17.005 L 9.413 4.252 L 0.764 4.252 L 0.764 1.501 L 13.308 1.501 L 13.308 3.442 L 4.39 16.194 L 13.504 16.194 L 13.504 18.946 Z" fill="var(--token-be079bad-eabd-4234-8a56-5579c7057187, rgb(0, 0, 0)) /* {&quot;name&quot;:&quot;Primary / Black&quot;} */"></path><path d="M 24.872 22.689 C 25.885 23.099 26.987 23.304 28.18 23.304 C 30.091 23.304 31.626 22.779 32.786 21.731 C 33.962 20.683 34.55 19.135 34.55 17.087 L 34.55 5.637 L 31.855 5.637 L 31.855 7.284 C 31.463 6.727 30.915 6.276 30.213 5.932 C 29.511 5.572 28.751 5.392 27.935 5.392 C 26.285 5.392 24.889 5.998 23.745 7.21 C 22.618 8.406 22.055 9.872 22.055 11.608 C 22.055 13.361 22.618 14.843 23.745 16.055 C 24.889 17.251 26.285 17.849 27.935 17.849 C 28.751 17.849 29.511 17.669 30.213 17.308 C 30.915 16.948 31.463 16.489 31.855 15.933 L 31.855 17.063 C 31.855 18.258 31.504 19.192 30.801 19.864 C 30.099 20.552 29.217 20.896 28.155 20.896 C 26.538 20.896 25.183 20.298 24.088 19.102 L 22.447 21.043 C 23.051 21.748 23.86 22.296 24.872 22.689 Z M 28.425 15.367 C 27.396 15.367 26.53 15.015 25.828 14.311 C 25.125 13.59 24.774 12.689 24.774 11.608 C 24.774 10.527 25.125 9.634 25.828 8.93 C 26.53 8.209 27.396 7.849 28.425 7.849 C 29.454 7.849 30.319 8.209 31.022 8.93 C 31.724 9.634 32.075 10.527 32.075 11.608 C 32.075 12.689 31.724 13.59 31.022 14.311 C 30.319 15.015 29.454 15.367 28.425 15.367 Z" fill="var(--token-be079bad-eabd-4234-8a56-5579c7057187, rgb(0, 0, 0)) /* {&quot;name&quot;:&quot;Primary / Black&quot;} */"></path><path d="M 43.49 23.304 C 42.298 23.304 41.196 23.099 40.183 22.689 C 39.17 22.296 38.362 21.748 37.758 21.043 L 39.399 19.102 C 40.493 20.298 41.849 20.896 43.466 20.896 C 44.528 20.896 45.41 20.552 46.112 19.864 C 46.814 19.192 47.165 18.258 47.165 17.063 L 47.165 15.933 C 46.773 16.489 46.226 16.948 45.524 17.308 C 44.822 17.669 44.062 17.849 43.246 17.849 C 41.596 17.849 40.199 17.251 39.056 16.055 C 37.929 14.843 37.366 13.361 37.366 11.608 C 37.366 9.872 37.929 8.406 39.056 7.21 C 40.199 5.998 41.596 5.392 43.246 5.392 C 44.062 5.392 44.822 5.572 45.524 5.932 C 46.226 6.276 46.773 6.727 47.165 7.284 L 47.165 5.637 L 49.86 5.637 L 49.86 17.087 C 49.86 19.135 49.272 20.683 48.096 21.731 C 46.937 22.779 45.401 23.304 43.49 23.304 Z M 41.139 14.311 C 41.841 15.015 42.707 15.367 43.736 15.367 C 44.764 15.367 45.63 15.015 46.332 14.311 C 47.035 13.59 47.386 12.689 47.386 11.608 C 47.386 10.527 47.035 9.634 46.332 8.93 C 45.63 8.209 44.764 7.849 43.736 7.849 C 42.707 7.849 41.841 8.209 41.139 8.93 C 40.436 9.634 40.085 10.527 40.085 11.608 C 40.085 12.689 40.436 13.59 41.139 14.311 Z" fill="var(--token-be079bad-eabd-4234-8a56-5579c7057187, rgb(0, 0, 0)) /* {&quot;name&quot;:&quot;Primary / Black&quot;} */"></path><path d="M 59.072 18.168 C 60.885 18.168 62.404 17.554 63.629 16.326 C 64.87 15.081 65.491 13.566 65.491 11.78 C 65.491 9.995 64.87 8.488 63.629 7.259 C 62.404 6.014 60.885 5.392 59.072 5.392 C 57.259 5.392 55.732 6.014 54.491 7.259 C 53.266 8.488 52.653 9.995 52.653 11.78 C 52.653 13.566 53.266 15.081 54.491 16.326 C 55.732 17.554 57.259 18.168 59.072 18.168 Z M 61.694 14.557 C 61.008 15.294 60.134 15.662 59.072 15.662 C 57.994 15.662 57.104 15.294 56.402 14.557 C 55.716 13.803 55.373 12.878 55.373 11.78 C 55.373 10.683 55.716 9.765 56.402 9.028 C 57.104 8.275 57.994 7.898 59.072 7.898 C 60.134 7.898 61.008 8.275 61.694 9.028 C 62.396 9.765 62.747 10.683 62.747 11.78 C 62.747 12.878 62.396 13.803 61.694 14.557 Z" fill="var(--token-be079bad-eabd-4234-8a56-5579c7057187, rgb(0, 0, 0)) /* {&quot;name&quot;:&quot;Primary / Black&quot;} */"></path></svg>