<svg xmlns:xlink="http://www.w3.org/1999/xlink"  xmlns="http://www.w3.org/2000/svg" xlink="http://www.w3.org/1999/xlink" viewBox="0 0 32 32" id="svg3242850108"><g id="ss3242850108_1"><path d="M 0 32 L 0 0 L 32 0 L 32 32 Z" fill="transparent"></path><g id="ss3242850108_3"><path d="M 16.062 14.697 C 15.399 6.47 8.512 0 0.114 0 C 0.114 8.359 6.524 15.22 14.697 15.938 C 6.47 16.601 0 23.488 0 31.886 C 8.359 31.886 15.22 25.476 15.938 17.304 C 16.601 25.53 23.488 32 31.886 32 C 31.886 23.641 25.476 16.78 17.304 16.062 C 25.53 15.399 32 8.512 32 0.114 C 23.641 0.114 16.78 6.524 16.062 14.697 Z M 16 16 L 16 16 L 16 16 C 16 16 16 16 16 16 Z" fill="var(--token-be079bad-eabd-4234-8a56-5579c7057187, rgb(0, 0, 0)) /* {&quot;name&quot;:&quot;Primary / Black&quot;} */"></path></g></g></svg>