<svg xmlns:xlink="http://www.w3.org/1999/xlink"  xmlns="http://www.w3.org/2000/svg" xlink="http://www.w3.org/1999/xlink" viewBox="0 0 32 32" id="svg1229382268"><path d="M 25.988 2.975 L 28.792 5.779 L 20.691 13.88 L 31.722 13.88 L 31.722 17.845 L 20.496 17.845 L 28.791 26.14 L 25.987 28.944 L 17.844 20.801 L 17.844 31.725 L 13.879 31.725 L 13.879 20.697 L 5.629 28.947 L 2.825 26.143 L 11.123 17.845 L 0 17.845 L 0 13.88 L 10.924 13.88 L 2.823 5.779 L 5.627 2.975 L 13.879 11.227 L 13.879 0 L 17.844 0 L 17.844 11.119 Z M 12.888 13.889 L 12.888 17.787 L 13.937 18.837 L 17.676 18.837 L 18.835 17.678 L 18.835 13.889 L 17.834 12.888 L 13.889 12.888 Z" fill="var(--token-be079bad-eabd-4234-8a56-5579c7057187, rgb(0, 0, 0)) /* {&quot;name&quot;:&quot;Primary / Black&quot;} */"></path></svg>