<svg xmlns:xlink="http://www.w3.org/1999/xlink"  xmlns="http://www.w3.org/2000/svg" xlink="http://www.w3.org/1999/xlink" viewBox="0 0 81 30" id="svg1431760737"><path d="M 73.896 23.037 L 73.896 3.635 L 77.373 3.635 L 77.373 23.037 Z" fill="var(--token-be079bad-eabd-4234-8a56-5579c7057187, rgb(0, 0, 0)) /* {&quot;name&quot;:&quot;Primary / Black&quot;} */"></path><path d="M 20.822 15.008 C 20.822 10.255 17.185 6.562 12.806 6.562 C 10.295 6.562 8.396 7.59 7.173 9.292 L 7.173 6.98 L 3.696 6.98 L 3.696 26.496 L 7.173 26.496 L 7.173 20.757 C 8.396 22.426 10.295 23.454 12.806 23.454 C 17.185 23.454 20.822 19.793 20.822 15.008 Z M 17.346 15.008 C 17.346 17.995 15.156 20.146 12.259 20.146 C 9.362 20.146 7.173 17.995 7.173 15.008 C 7.173 12.022 9.362 9.87 12.259 9.87 C 15.156 9.87 17.346 12.022 17.346 15.008 Z" fill="var(--token-be079bad-eabd-4234-8a56-5579c7057187, rgb(0, 0, 0)) /* {&quot;name&quot;:&quot;Primary / Black&quot;} */"></path><path d="M 31.86 20.275 C 29.285 20.275 27.257 18.99 26.71 16.485 L 39.522 16.485 C 39.586 16.036 39.651 15.522 39.651 15.04 C 39.651 10.416 36.367 6.562 31.571 6.562 C 26.516 6.562 23.072 10.255 23.072 15.008 C 23.072 19.825 26.516 23.454 31.828 23.454 C 34.983 23.454 37.397 22.137 38.878 19.954 L 36.013 18.284 C 35.24 19.408 33.792 20.275 31.86 20.275 Z M 36.142 13.659 L 26.678 13.659 C 27.16 11.251 28.931 9.709 31.538 9.709 C 33.631 9.709 35.659 10.898 36.142 13.659 Z" fill="var(--token-be079bad-eabd-4234-8a56-5579c7057187, rgb(0, 0, 0)) /* {&quot;name&quot;:&quot;Primary / Black&quot;} */"></path><path d="M 55.364 6.98 L 58.84 6.98 L 58.84 23.037 L 55.364 23.037 L 55.364 20.724 C 54.14 22.426 52.241 23.454 49.73 23.454 C 45.352 23.454 41.714 19.761 41.714 15.008 C 41.714 10.223 45.352 6.562 49.73 6.562 C 52.241 6.562 54.14 7.59 55.364 9.26 Z M 50.278 20.146 C 53.175 20.146 55.364 17.995 55.364 15.008 C 55.364 12.022 53.175 9.87 50.278 9.87 C 47.38 9.87 45.191 12.022 45.191 15.008 C 45.191 17.995 47.38 20.146 50.278 20.146 Z" fill="var(--token-be079bad-eabd-4234-8a56-5579c7057187, rgb(0, 0, 0)) /* {&quot;name&quot;:&quot;Primary / Black&quot;} */"></path><path d="M 66.37 9.677 C 67.336 7.494 69.299 6.691 71.327 6.691 L 71.327 10.448 C 69.042 10.288 66.37 11.347 66.37 14.944 L 66.37 23.037 L 62.893 23.037 L 62.893 6.98 L 66.37 6.98 Z" fill="var(--token-be079bad-eabd-4234-8a56-5579c7057187, rgb(0, 0, 0)) /* {&quot;name&quot;:&quot;Primary / Black&quot;} */"></path></svg>